<svg width="152" height="160" viewBox="0 0 152 160" fill="none" xmlns="http://www.w3.org/2000/svg">
<g filter="url(#filter0_d_240_3943)">
<rect x="58.2812" y="46.2869" width="15.9077" height="45.2758" transform="rotate(-26.5929 58.2812 46.2869)" fill="white"/>
<path d="M70.1756 77.4819C70.0345 77.1828 69.9784 76.8494 70.1309 76.556C70.6036 75.6467 72.3851 73.4366 79.0879 70.0811C85.7908 66.7256 88.6276 66.6238 89.6388 66.7902C89.9651 66.8439 90.1984 67.0886 90.3533 67.3808L120.841 124.891C121.367 125.883 120.974 127.114 119.97 127.616L100.652 137.287C99.6483 137.789 98.4273 137.367 97.9483 136.352L70.1756 77.4819Z" fill="#9F6B41"/>
<path d="M69.9102 15.0177C76.8683 11.2061 86.0147 9.7253 95.9365 13.3711C98.53 14.3241 97.8878 17.8383 95.2041 18.4957C84.5914 21.0953 76.7609 26.3391 80.3927 35.9574C80.3925 35.9569 80.3919 35.9567 80.3914 35.957L52.7452 49.7969C51.7512 50.2945 50.542 49.8921 50.0444 48.8981C49.5468 47.9041 48.3376 47.5017 47.3437 47.9993L41.44 50.9547C40.468 51.4413 40.0745 52.6238 40.5611 53.5958C41.0477 54.5679 40.6542 55.7504 39.6821 56.237L29.1123 61.5283C28.1402 62.0149 26.9578 61.6214 26.4712 60.6494L25.5903 58.8898C25.5902 58.8895 25.5899 58.8894 25.5896 58.8895C25.5894 58.8897 25.5891 58.8896 25.589 58.8893L19.0378 45.8028C19.0376 45.8025 19.0377 45.8022 19.038 45.8021C19.0382 45.802 19.0383 45.8017 19.0382 45.8015L17.9895 43.7065C17.4101 42.5493 17.8786 41.1415 19.0359 40.5622L28.9351 35.6066C30.0923 35.0273 31.5001 35.4958 32.0794 36.653C32.6587 37.8102 34.0665 38.2787 35.2237 37.6994L40.4654 35.0754C41.6398 34.4875 42.1152 33.0589 41.5273 31.8846C40.9394 30.7102 41.4149 29.2816 42.5892 28.6937L69.9102 15.0177Z" fill="#555555"/>
</g>
<defs>
<filter id="filter0_d_240_3943" x="-4.8" y="-3.9666" width="173.6" height="173.6" filterUnits="userSpaceOnUse" color-interpolation-filters="sRGB">
<feFlood flood-opacity="0" result="BackgroundImageFix"/>
<feColorMatrix in="SourceAlpha" type="matrix" values="0 0 0 0 0 0 0 0 0 0 0 0 0 0 0 0 0 0 127 0" result="hardAlpha"/>
<feOffset dy="5.6"/>
<feGaussianBlur stdDeviation="8.4"/>
<feComposite in2="hardAlpha" operator="out"/>
<feColorMatrix type="matrix" values="0 0 0 0 0.802678 0 0 0 0 0.361205 0 0 0 0 0 0 0 0 0.24 0"/>
<feBlend mode="normal" in2="BackgroundImageFix" result="effect1_dropShadow_240_3943"/>
<feBlend mode="normal" in="SourceGraphic" in2="effect1_dropShadow_240_3943" result="shape"/>
</filter>
</defs>
</svg>
