<svg width="271" height="280" viewBox="0 0 271 280" fill="none" xmlns="http://www.w3.org/2000/svg">
<g clip-path="url(#clip0_240_4768)">
<rect width="271" height="280" fill="#FF7F1C"/>
<path d="M283.667 278.999H-11.2236V248.98H283.667V278.999ZM227.19 89.1738H227.309L241.317 104.183V134.202H241.418L255.443 150.095V180.113H255.528L269.57 199.537V229.556H269.982L284.024 248.979H-11.2236L2.81836 229.556H2.93164V199.537L16.9746 180.113H17.0586V150.095L31.084 134.202H31.1855V104.183H31.1865L45.1943 89.1738H45.3115V60.0391H227.19V89.1738ZM227.19 60.0381H45.3115L59.3027 45.0293H213.2L227.19 60.0381ZM213.035 15.0098V45.0283H58.5264V15.0098H58.5547L72.6816 0H198.908L213.035 15.0098Z" fill="url(#paint0_linear_240_4768)"/>
<rect x="58.2188" y="15.2354" width="156" height="30" fill="#FFC691"/>
<rect x="45.2188" y="60.2354" width="182" height="29" fill="#FFC691"/>
<rect x="31.2188" y="104.235" width="210" height="30" fill="#FFC691"/>
<rect x="17.2188" y="150.235" width="238" height="30" fill="#FFC691"/>
<rect x="3.21875" y="200.235" width="266" height="30" fill="#FFC691"/>
<rect x="-10.7812" y="249.235" width="294" height="30" fill="#FFC691"/>
<g filter="url(#filter0_n_240_4768)">
<rect x="0.211914" y="85" width="271" height="195" fill="url(#paint1_linear_240_4768)"/>
</g>
</g>
<defs>
<filter id="filter0_n_240_4768" x="0.211914" y="85" width="271" height="195" filterUnits="userSpaceOnUse" color-interpolation-filters="sRGB">
<feFlood flood-opacity="0" result="BackgroundImageFix"/>
<feBlend mode="normal" in="SourceGraphic" in2="BackgroundImageFix" result="shape"/>
<feTurbulence type="fractalNoise" baseFrequency="1.25 1.25" stitchTiles="stitch" numOctaves="3" result="noise" seed="9912" />
<feColorMatrix in="noise" type="luminanceToAlpha" result="alphaNoise" />
<feComponentTransfer in="alphaNoise" result="coloredNoise1">
<feFuncA type="discrete" tableValues="1 1 1 1 1 1 1 1 1 1 1 1 1 1 1 1 1 1 1 1 1 1 1 1 1 1 1 1 1 1 1 1 1 1 1 1 1 1 1 1 1 1 1 1 1 1 1 1 1 1 1 0 0 0 0 0 0 0 0 0 0 0 0 0 0 0 0 0 0 0 0 0 0 0 0 0 0 0 0 0 0 0 0 0 0 0 0 0 0 0 0 0 0 0 0 0 0 0 0 0 "/>
</feComponentTransfer>
<feComposite operator="in" in2="shape" in="coloredNoise1" result="noise1Clipped" />
<feComponentTransfer in="alphaNoise" result="coloredNoise2">
<feFuncA type="discrete" tableValues="0 0 0 0 0 0 0 0 0 0 0 0 0 0 0 0 0 0 0 0 0 0 0 0 0 0 0 0 0 0 0 0 0 0 0 0 0 0 0 0 0 0 0 0 0 0 0 0 0 1 1 1 1 1 1 1 1 1 1 1 1 1 1 1 1 1 1 1 1 1 1 1 1 1 1 1 1 1 1 1 1 1 1 1 1 1 1 1 1 1 1 1 1 1 1 1 1 1 1 1 "/>
</feComponentTransfer>
<feComposite operator="in" in2="shape" in="coloredNoise2" result="noise2Clipped" />
<feFlood flood-color="#FF8629" result="color1Flood" />
<feComposite operator="in" in2="noise1Clipped" in="color1Flood" result="color1" />
<feFlood flood-color="rgba(255, 255, 255, 0.25)" result="color2Flood" />
<feComposite operator="in" in2="noise2Clipped" in="color2Flood" result="color2" />
<feMerge result="effect1_noise_240_4768">
<feMergeNode in="shape" />
<feMergeNode in="color1" />
<feMergeNode in="color2" />
</feMerge>
</filter>
<linearGradient id="paint0_linear_240_4768" x1="136.4" y1="0" x2="136.4" y2="278.999" gradientUnits="userSpaceOnUse">
<stop offset="0.197115" stop-color="white"/>
<stop offset="1" stop-color="#FFF3A3"/>
</linearGradient>
<linearGradient id="paint1_linear_240_4768" x1="135.712" y1="85" x2="135.712" y2="280" gradientUnits="userSpaceOnUse">
<stop stop-color="#FF8629" stop-opacity="0"/>
<stop offset="1" stop-color="#FF8629" stop-opacity="0.5"/>
</linearGradient>
<clipPath id="clip0_240_4768">
<rect width="271" height="280" fill="white"/>
</clipPath>
</defs>
</svg>
