<svg width="50" height="40" viewBox="0 0 50 40" fill="none" xmlns="http://www.w3.org/2000/svg">
<g clip-path="url(#clip0_677_3741)">
<g filter="url(#filter0_d_677_3741)">
<rect x="25.3269" y="15.6201" width="6.88176" height="19.5451" transform="rotate(22.5158 25.3269 15.6201)" fill="white"/>
<path d="M20.4296 23.0631C20.4891 22.9322 20.594 22.8307 20.7375 22.8219C21.1851 22.7944 22.452 22.9174 25.6373 24.2378C28.8226 25.5582 29.8049 26.3676 30.1018 26.7037C30.197 26.8115 30.1993 26.9574 30.1487 27.092L22.7656 46.7442C22.6352 47.0912 22.2434 47.2611 21.901 47.1192L12.0893 43.0519C11.7469 42.91 11.5902 42.5126 11.7435 42.1752L20.4296 23.0631Z" fill="#9F6B41"/>
<path d="M38.54 12.6008C42.2745 13.9894 45.8307 17.0974 47.4407 22.368C47.7052 23.234 46.6804 23.8242 45.964 23.2704C41.5221 19.8373 36.8094 18.1605 34.3565 22.6929C34.3567 22.6924 34.3565 22.6918 34.356 22.6916L21.033 17.1687C20.5534 16.9699 20.3258 16.42 20.5246 15.9405C20.7234 15.4609 20.4958 14.911 20.0163 14.7123L18.2499 13.98C17.7813 13.7858 17.244 14.0082 17.0498 14.4768C16.8555 14.9454 16.3182 15.1678 15.8496 14.9735L10.6262 12.8082C10.1367 12.6053 9.90444 12.0441 10.1073 11.5546L13.5277 3.30356C13.7306 2.81412 14.2918 2.58183 14.7813 2.78472L19.9669 4.93437C20.4564 5.13726 20.6887 5.6985 20.4858 6.18793L20.3836 6.43449C20.1807 6.92392 20.413 7.48516 20.9024 7.68805L22.6131 8.39719C23.1025 8.60008 23.6638 8.36779 23.8667 7.87836L23.9805 7.60384C24.1834 7.1144 24.7446 6.88211 25.234 7.085L38.54 12.6008Z" fill="#555555"/>
</g>
</g>
<defs>
<filter id="filter0_d_677_3741" x="4.52803" y="-0.959178" width="48.4613" height="55.4698" filterUnits="userSpaceOnUse" color-interpolation-filters="sRGB">
<feFlood flood-opacity="0" result="BackgroundImageFix"/>
<feColorMatrix in="SourceAlpha" type="matrix" values="0 0 0 0 0 0 0 0 0 0 0 0 0 0 0 0 0 0 127 0" result="hardAlpha"/>
<feOffset dy="1.8353"/>
<feGaussianBlur stdDeviation="2.75295"/>
<feComposite in2="hardAlpha" operator="out"/>
<feColorMatrix type="matrix" values="0 0 0 0 0.556863 0 0 0 0 0.556863 0 0 0 0 0.556863 0 0 0 0.24 0"/>
<feBlend mode="normal" in2="BackgroundImageFix" result="effect1_dropShadow_677_3741"/>
<feBlend mode="normal" in="SourceGraphic" in2="effect1_dropShadow_677_3741" result="shape"/>
</filter>
<clipPath id="clip0_677_3741">
<rect width="50" height="40" fill="white"/>
</clipPath>
</defs>
</svg>
