<svg width="300" height="340" viewBox="0 0 300 340" fill="none" xmlns="http://www.w3.org/2000/svg">
<g clip-path="url(#clip0_1597_3255)">
<rect width="300" height="340" rx="17.2308" fill="#F4F8FD"/>
<g clip-path="url(#clip1_1597_3255)">
<rect width="312.204" height="346.769" transform="translate(-6.10205)" fill="#FF7F1C"/>
<path d="M256.08 102.848H255.944V69.2305H46.0834V102.848H45.9482L29.7842 120.165V154.803H29.667L98.2236 167.839L154.762 162.647L193.993 173.141H256.08L239.801 162.647L272.244 173.141H288.543L272.36 154.803H272.244V120.165L256.08 102.848Z" fill="url(#paint0_linear_1597_3255)"/>
<path d="M256.041 69.2758H46.1806L61.4284 51.9558L239.898 51.9569L256.041 69.2758Z" fill="url(#paint1_linear_1597_3255)"/>
<path d="M239.708 17.319V51.9558H61.4284V17.319H61.4611L77.7615 0H223.407L239.708 17.319Z" fill="url(#paint2_linear_1597_3255)"/>
<rect x="61.0737" y="17.5791" width="180" height="34.6154" fill="#FFC691"/>
<rect x="46.0737" y="69.502" width="210" height="33.4615" fill="#FFC691"/>
<rect x="29.667" y="120" width="242.308" height="34.6154" fill="#FFC691"/>
<path d="M86.7829 195L29.6675 154.615L98.3213 167.884L86.7829 195Z" fill="#FFB476"/>
<path d="M154.283 177.115L154.86 162.692L98.3212 167.885L86.7827 195L154.283 177.115Z" fill="#FF9D4C"/>
<path d="M190.052 195.577L194.09 173.077L154.86 162.692L154.283 177.115L190.052 195.577Z" fill="#FFB476"/>
<path d="M194.09 173.076L190.052 195.576L215.436 193.845L194.09 173.076Z" fill="#FF9D4C"/>
<path d="M255.821 173.076H194.09L215.436 193.845L254.09 179.999L255.821 173.076Z" fill="url(#paint3_linear_1597_3255)"/>
<path d="M272.552 173.077L239.667 162.692L255.821 173.077L254.667 177.692L271.398 182.308L272.552 173.077Z" fill="url(#paint4_linear_1597_3255)"/>
<path d="M271.398 182.307L272.552 173.076H288.706L271.398 182.307Z" fill="#FF9238"/>
<path d="M202.219 333.461L203.845 316.389L215.226 311.511L212.787 322.079L202.219 333.461Z" fill="#FFA051"/>
<path d="M203.846 316.39L194.09 297.692V317.203L202.22 333.462L203.846 316.39Z" fill="#FFC691"/>
<path d="M203.846 316.39L194.09 297.692L215.227 311.512L203.846 316.39Z" fill="white"/>
<path d="M102.738 306.327L102.937 301.73L107.866 299.981L102.738 306.327Z" fill="#FFA051"/>
<path d="M102.937 301.73L98.3213 297.513L98.8529 302.52L102.785 306.321L102.937 301.73Z" fill="#FFC691"/>
<path d="M102.937 301.73L98.3213 297.513L107.861 299.93L102.937 301.73Z" fill="white"/>
<path d="M289.45 231.245L292.065 224.973L298.742 224.715L289.45 231.245Z" fill="#FFA051"/>
<path d="M292.065 224.974L288.849 217.115L286.876 224.274L289.508 231.258L292.065 224.974Z" fill="#FFC691"/>
<path d="M292.065 224.974L288.849 217.115L298.762 224.643L292.065 224.974Z" fill="white"/>
<path d="M262.334 104.324L264.949 98.0524L271.625 97.7942L262.334 104.324Z" fill="#FFA051"/>
<path d="M264.949 98.0526L261.732 90.1938L259.76 97.3532L262.392 104.337L264.949 98.0526Z" fill="#FFC691"/>
<path d="M264.949 98.0526L261.732 90.1938L271.646 97.7223L264.949 98.0526Z" fill="white"/>
<path d="M100.052 324.23L97.168 321.922L104.405 320.75L100.052 324.23Z" fill="#FFA051"/>
<path d="M97.1674 321.924L100.629 317.307L104.399 320.7L97.1674 321.924Z" fill="white"/>
<path d="M209.783 253.53L216.839 244.711L192.791 254.831L209.783 253.53Z" fill="#FFA051"/>
<path d="M216.841 244.712L201.643 242.559L192.764 254.737L216.841 244.712Z" fill="white"/>
<path d="M91.3963 213.725L82.7002 203.321L136.931 210.821L127.7 218.898L91.3963 213.725Z" fill="#FFC691"/>
<path d="M134.63 200.436L136.362 210.819L82.1233 203.321L101.162 202.168L110.399 195.244L134.63 200.436Z" fill="white"/>
<path d="M14.6706 312.825L10.9337 310.141L12.1699 305.059L14.6706 312.825Z" fill="#FFA051"/>
<path d="M10.9337 310.141L4.87695 311.692L9.35705 313.99L14.6918 312.783L10.9337 310.141Z" fill="#FFC691"/>
<path d="M10.9337 310.141L4.87695 311.692L12.1249 305.036L10.9337 310.141Z" fill="white"/>
<path d="M4.85986 240.577L6.59063 230.769L16.3983 227.308L11.206 235.961L4.85986 240.577Z" fill="#FFA051"/>
<path d="M6.59052 230.769L3.7059 211.153L0.821289 231.923L4.85975 240.576L6.59052 230.769Z" fill="#FFC691"/>
<path d="M6.59067 230.769L3.70605 211.153L16.3984 227.307L6.59067 230.769Z" fill="white"/>
<path d="M27.9368 128.653L20.4368 145.384L18.7061 137.884L27.9368 128.653Z" fill="#FFA051"/>
<path d="M18.7058 137.884L10.6289 133.269L14.6674 144.23L20.4366 145.384L18.7058 137.884Z" fill="#FFC691"/>
<path d="M27.9366 128.653L23.3212 128.076L10.6289 133.268L18.7058 137.884L27.9366 128.653Z" fill="white"/>
<path d="M137.158 147.842L109.46 157.063L116.392 146.956L137.158 147.842Z" fill="#FFA051"/>
<path d="M116.391 146.957L113.106 132.515L104.6 149.055L109.459 157.063L116.391 146.957Z" fill="#FFBB7D"/>
<path d="M137.158 147.842L132.864 141.808L113.107 132.514L116.392 146.957L137.158 147.842Z" fill="#FFEAD6"/>
<path d="M38.8984 176.538L48.7061 166.73V182.307L40.6292 193.846L38.8984 176.538Z" fill="#FFA051"/>
<path d="M38.8983 176.538L14.6675 178.846L18.129 199.038L40.629 193.846L38.8983 176.538Z" fill="#FFC691"/>
<path d="M48.7059 166.73L34.8598 163.846L14.6675 178.846L38.8982 176.538L48.7059 166.73Z" fill="white"/>
<path d="M143.898 284.423L161.206 272.308L181.398 267.115L175.629 281.538L139.283 300L143.898 284.423Z" fill="#FFA051"/>
<path d="M143.898 284.423L124.86 270L103.514 271.731L120.245 294.231L139.283 300L143.898 284.423Z" fill="#FFB476"/>
<path d="M161.206 272.307L117.36 256.153L103.514 271.73L124.86 270.576L143.898 284.423L161.206 272.307Z" fill="#FFC691"/>
<path d="M144.475 243.461L129.475 241.153L117.36 256.153L161.206 272.307L181.398 267.115L159.475 256.153L144.475 243.461Z" fill="white"/>
<path d="M249.916 234.41L259.239 239.54L266.074 247.513L258.272 248.111L241.849 235.786L249.916 234.41Z" fill="#FFA051"/>
<path d="M249.916 234.41L252.203 222.599L246.676 213.335L240.225 225.899L241.849 235.787L249.916 234.41Z" fill="#FFB476"/>
<path d="M259.239 239.541L256.795 216.131L246.676 213.335L251.943 222.727L249.916 234.41L259.239 239.541Z" fill="#FFC691"/>
<path d="M268.559 225.567L266.268 218.274L256.795 216.132L259.239 239.541L266.074 247.514L266.156 235.168L268.559 225.567Z" fill="white"/>
<path d="M2.88169 71.1778L-4.34771 59.3407L-8.00678 74.4817L-2.86628 87.5946L2.88169 71.1778Z" fill="#FFC691"/>
<path d="M2.88132 71.1782L25.892 79.1132L17.7841 97.9274L-2.86665 87.5951L2.88132 71.1782Z" fill="#FFA051"/>
<path d="M-4.34859 59.3423L9.78773 59.7909L25.8915 79.1145L2.88081 71.1795L-4.34859 59.3423Z" fill="white"/>
<path d="M77.5518 301.154L85.6287 290.192V294.808L79.8595 306.923L77.5518 301.154Z" fill="#FFA051"/>
<path d="M77.5519 301.154L66.5903 299.423L72.3596 306.923H79.8596L77.5519 301.154Z" fill="#FFC691"/>
<path d="M85.6288 290.192L77.5519 287.308L66.5903 299.423L77.5519 301.154L85.6288 290.192Z" fill="white"/>
<path d="M241.398 124.615L249.475 113.653V118.269L243.706 130.384L241.398 124.615Z" fill="#FFA051"/>
<path d="M241.398 124.615L230.437 122.884L236.206 130.384H243.706L241.398 124.615Z" fill="#FFC691"/>
<path d="M249.475 113.653L241.398 110.769L230.437 122.884L241.398 124.615L249.475 113.653Z" fill="white"/>
<path d="M285.821 181.154L293.898 170.192V174.808L288.128 186.923L285.821 181.154Z" fill="#FFA051"/>
<path d="M285.821 181.154L274.859 179.423L280.629 186.923H288.129L285.821 181.154Z" fill="#FFC691"/>
<path d="M293.898 170.192L285.821 167.308L274.859 179.423L285.821 181.154L293.898 170.192Z" fill="white"/>
<path d="M26.2061 284.423L50.4368 269.423L48.7061 286.154L28.5137 300L26.2061 284.423Z" fill="#FFA051"/>
<path d="M26.2059 284.423L0.821289 274.615L8.89821 295.384L28.5136 300L26.2059 284.423Z" fill="#FFC691"/>
<path d="M50.4367 269.423L23.8982 261.923L0.821289 274.615L26.2059 284.423L50.4367 269.423Z" fill="white"/>
<path d="M265.279 326.535L305.437 319.038L299.667 338.654L269.09 342.692L265.279 326.535Z" fill="#FFA051"/>
<path d="M265.629 326.538L238.501 311.351L229.283 329.423L269.091 342.692L265.629 326.538Z" fill="#FFC691"/>
<path d="M304.86 319.038L266.555 303.251L238.447 311.671L265.629 326.538L304.86 319.038Z" fill="white"/>
<path d="M64.9796 336.361L80.3741 316.243L93.6162 330.116L70.227 353.546L64.9796 336.361Z" fill="#FFA051"/>
<path d="M64.9793 336.361L9.87646 351.076L20.2328 365.519L70.2268 353.546L64.9793 336.361Z" fill="#FFC691"/>
<path d="M80.374 316.244L33.3334 315.752L9.87663 351.076L64.9795 336.362L80.374 316.244Z" fill="white"/>
<path d="M73.4657 248.959L105.898 233.698L105.039 248.142L72.286 265.688L73.4657 248.959Z" fill="#FFA051"/>
<path d="M73.4656 248.959L30.834 233.08L35.437 245.959L72.2059 266.259L73.4656 248.959Z" fill="#FFC691"/>
<path d="M105.898 233.698L74.1324 223.42L63.0475 227.692L46.7991 223.084L30.8339 233.08L73.4655 248.959L105.898 233.698Z" fill="white"/>
<path d="M214.783 204.826L228.317 183.412L242.746 196.045L221.546 221.472L214.783 204.826Z" fill="#FFA051"/>
<path d="M214.783 204.825L161.216 224.408L172.823 237.867L221.546 221.472L214.783 204.825Z" fill="#FFC691"/>
<path d="M228.317 183.412L181.421 187.128L161.216 224.408L214.783 204.826L228.317 183.412Z" fill="white"/>
<path d="M230.436 284.422L256.398 278.076L253.513 292.499L229.282 299.422L230.436 284.422Z" fill="#FFB476"/>
<path d="M299.09 285.576L256.398 278.076L253.513 292.499L292.744 301.73L299.09 285.576Z" fill="#FFA051"/>
<path d="M230.436 284.422L191.783 270.576L186.59 281.538L229.283 299.422L230.436 284.422Z" fill="#FFC691"/>
<path d="M297.359 280.384L243.128 259.038L191.782 270.577L230.436 284.423L255.821 278.077L299.09 285.577L297.359 280.384Z" fill="white"/>
<path d="M175.629 327.692L181.398 322.5L183.706 333.462L177.36 341.538L175.629 327.692Z" fill="#FFA051"/>
<path d="M175.629 327.692L119.091 320.769L128.899 336.922L167.552 342.115L175.629 327.692Z" fill="#FFC691"/>
<path d="M181.398 322.5L146.783 309.23L118.514 320.769L175.629 327.692L181.398 322.5Z" fill="white"/>
<path d="M175.629 327.692L167.552 342.115L177.36 341.539L175.629 327.692Z" fill="#FFB476"/>
<g filter="url(#filter0_n_1597_3255)">
<rect x="-5.76953" y="167.308" width="312.692" height="180" fill="url(#paint5_linear_1597_3255)"/>
</g>
</g>
</g>
<defs>
<filter id="filter0_n_1597_3255" x="-5.76953" y="167.308" width="312.692" height="180" filterUnits="userSpaceOnUse" color-interpolation-filters="sRGB">
<feFlood flood-opacity="0" result="BackgroundImageFix"/>
<feBlend mode="normal" in="SourceGraphic" in2="BackgroundImageFix" result="shape"/>
<feTurbulence type="fractalNoise" baseFrequency="1.0833332538604736 1.0833332538604736" stitchTiles="stitch" numOctaves="3" result="noise" seed="9912" />
<feColorMatrix in="noise" type="luminanceToAlpha" result="alphaNoise" />
<feComponentTransfer in="alphaNoise" result="coloredNoise1">
<feFuncA type="discrete" tableValues="1 1 1 1 1 1 1 1 1 1 1 1 1 1 1 1 1 1 1 1 1 1 1 1 1 1 1 1 1 1 1 1 1 1 1 1 1 1 1 1 1 1 1 1 1 1 1 1 1 1 1 0 0 0 0 0 0 0 0 0 0 0 0 0 0 0 0 0 0 0 0 0 0 0 0 0 0 0 0 0 0 0 0 0 0 0 0 0 0 0 0 0 0 0 0 0 0 0 0 0 "/>
</feComponentTransfer>
<feComposite operator="in" in2="shape" in="coloredNoise1" result="noise1Clipped" />
<feComponentTransfer in="alphaNoise" result="coloredNoise2">
<feFuncA type="discrete" tableValues="0 0 0 0 0 0 0 0 0 0 0 0 0 0 0 0 0 0 0 0 0 0 0 0 0 0 0 0 0 0 0 0 0 0 0 0 0 0 0 0 0 0 0 0 0 0 0 0 0 1 1 1 1 1 1 1 1 1 1 1 1 1 1 1 1 1 1 1 1 1 1 1 1 1 1 1 1 1 1 1 1 1 1 1 1 1 1 1 1 1 1 1 1 1 1 1 1 1 1 1 "/>
</feComponentTransfer>
<feComposite operator="in" in2="shape" in="coloredNoise2" result="noise2Clipped" />
<feFlood flood-color="#FF8629" result="color1Flood" />
<feComposite operator="in" in2="noise1Clipped" in="color1Flood" result="color1" />
<feFlood flood-color="rgba(255, 255, 255, 0.25)" result="color2Flood" />
<feComposite operator="in" in2="noise2Clipped" in="color2Flood" result="color2" />
<feMerge result="effect1_noise_1597_3255">
<feMergeNode in="shape" />
<feMergeNode in="color1" />
<feMergeNode in="color2" />
</feMerge>
</filter>
<linearGradient id="paint0_linear_1597_3255" x1="159.105" y1="69.2305" x2="165.821" y2="173.077" gradientUnits="userSpaceOnUse">
<stop stop-color="#FFF9F0"/>
<stop offset="1" stop-color="#FFDBAC"/>
</linearGradient>
<linearGradient id="paint1_linear_1597_3255" x1="159.202" y1="0" x2="159.202" y2="173.186" gradientUnits="userSpaceOnUse">
<stop stop-color="white"/>
<stop offset="1" stop-color="#FFDBAC"/>
</linearGradient>
<linearGradient id="paint2_linear_1597_3255" x1="159.202" y1="0" x2="159.202" y2="173.186" gradientUnits="userSpaceOnUse">
<stop stop-color="white"/>
<stop offset="1" stop-color="#FFDBAC"/>
</linearGradient>
<linearGradient id="paint3_linear_1597_3255" x1="224.956" y1="173.076" x2="248.321" y2="188.653" gradientUnits="userSpaceOnUse">
<stop stop-color="#FF8D30"/>
<stop offset="1" stop-color="#FF9D4C"/>
</linearGradient>
<linearGradient id="paint4_linear_1597_3255" x1="256.11" y1="162.692" x2="256.11" y2="182.308" gradientUnits="userSpaceOnUse">
<stop stop-color="#FF9D4C"/>
<stop offset="1" stop-color="#FFB476"/>
</linearGradient>
<linearGradient id="paint5_linear_1597_3255" x1="150.577" y1="167.308" x2="150.577" y2="347.308" gradientUnits="userSpaceOnUse">
<stop stop-color="#FF8B00" stop-opacity="0"/>
<stop offset="1" stop-color="#FF8B00"/>
</linearGradient>
<clipPath id="clip0_1597_3255">
<rect width="300" height="340" rx="17.2308" fill="white"/>
</clipPath>
<clipPath id="clip1_1597_3255">
<rect width="312.204" height="346.769" fill="white" transform="translate(-6.10205)"/>
</clipPath>
</defs>
</svg>
