<svg width="260" height="280" viewBox="0 0 260 280" fill="none" xmlns="http://www.w3.org/2000/svg">
<g clip-path="url(#clip0_677_4719)">
<rect width="260" height="280" fill="#F4F8FD"/>
<g clip-path="url(#clip1_677_4719)">
<rect width="270.577" height="300.533" transform="translate(-5.28809)" fill="#FF7F1C"/>
<path d="M221.937 89.1348H221.818V60H39.9395V89.1348H39.8223L25.8135 104.144V134.163H25.7119L85.1277 145.461L134.128 140.961L168.128 150.056H221.937L207.828 140.961L235.945 150.056H250.071L236.046 134.163H235.945V104.144L221.937 89.1348Z" fill="url(#paint0_linear_677_4719)"/>
<path d="M221.902 60.0391H40.0234L53.2383 45.0283L207.912 45.0293L221.902 60.0391Z" fill="url(#paint1_linear_677_4719)"/>
<path d="M207.747 15.0098V45.0283H53.2383V15.0098H53.2666L67.3936 0H193.62L207.747 15.0098Z" fill="url(#paint2_linear_677_4719)"/>
<rect x="52.9316" y="15.2354" width="156" height="30" fill="#FFC691"/>
<rect x="39.9316" y="60.2354" width="182" height="29" fill="#FFC691"/>
<rect x="25.7119" y="104" width="210" height="30" fill="#FFC691"/>
<path d="M75.2119 169L25.7119 134L85.2119 145.5L75.2119 169Z" fill="#FFB476"/>
<path d="M133.712 153.5L134.212 141L85.2119 145.5L75.2119 169L133.712 153.5Z" fill="#FF9D4C"/>
<path d="M164.712 169.5L168.212 150L134.212 141L133.712 153.5L164.712 169.5Z" fill="#FFB476"/>
<path d="M168.212 150L164.712 169.5L186.712 168L168.212 150Z" fill="#FF9D4C"/>
<path d="M221.712 150H168.212L186.712 168L220.212 156L221.712 150Z" fill="url(#paint3_linear_677_4719)"/>
<path d="M236.212 150L207.712 141L221.712 150L220.712 154L235.212 158L236.212 150Z" fill="url(#paint4_linear_677_4719)"/>
<path d="M235.212 158L236.212 150H250.212L235.212 158Z" fill="#FF9238"/>
<path d="M175.258 289L176.667 274.204L186.531 269.977L184.417 279.136L175.258 289Z" fill="#FFA051"/>
<path d="M176.666 274.205L168.212 258V274.909L175.257 289L176.666 274.205Z" fill="#FFC691"/>
<path d="M176.666 274.205L168.212 258L186.53 269.977L176.666 274.205Z" fill="white"/>
<path d="M89.0397 265.484L89.2119 261.5L93.4838 259.984L89.0397 265.484Z" fill="#FFA051"/>
<path d="M89.2119 261.5L85.2119 257.845L85.6727 262.184L89.0808 265.479L89.2119 261.5Z" fill="#FFC691"/>
<path d="M89.2119 261.5L85.2119 257.845L93.4794 259.94L89.2119 261.5Z" fill="white"/>
<path d="M250.856 200.413L253.123 194.977L258.909 194.754L250.856 200.413Z" fill="#FFA051"/>
<path d="M253.123 194.977L250.336 188.167L248.626 194.371L250.908 200.424L253.123 194.977Z" fill="#FFC691"/>
<path d="M253.123 194.977L250.336 188.167L258.927 194.691L253.123 194.977Z" fill="white"/>
<path d="M227.356 90.4148L229.623 84.9794L235.409 84.7556L227.356 90.4148Z" fill="#FFA051"/>
<path d="M229.623 84.9794L226.836 78.1685L225.126 84.3732L227.408 90.4261L229.623 84.9794Z" fill="#FFC691"/>
<path d="M229.623 84.9794L226.836 78.1685L235.427 84.6931L229.623 84.9794Z" fill="white"/>
<path d="M86.7124 281L84.2126 279L90.4844 277.983L86.7124 281Z" fill="#FFA051"/>
<path d="M84.2119 279.001L87.2119 275L90.4793 277.941L84.2119 279.001Z" fill="white"/>
<path d="M181.812 219.727L187.927 212.083L167.085 220.853L181.812 219.727Z" fill="#FFA051"/>
<path d="M187.929 212.084L174.757 210.218L167.062 220.772L187.929 212.084Z" fill="white"/>
<path d="M79.2104 185.228L71.6738 176.212L118.674 182.712L110.674 189.712L79.2104 185.228Z" fill="#FFC691"/>
<path d="M116.679 173.711L118.181 182.71L71.1738 176.211L87.6739 175.212L95.6795 169.212L116.679 173.711Z" fill="white"/>
<path d="M12.7146 271.116L9.476 268.79L10.5474 264.385L12.7146 271.116Z" fill="#FFA051"/>
<path d="M9.47574 268.789L4.22656 270.134L8.10931 272.125L12.7328 271.079L9.47574 268.789Z" fill="#FFC691"/>
<path d="M9.47574 268.789L4.22656 270.134L10.5081 264.365L9.47574 268.789Z" fill="white"/>
<path d="M4.21191 208.5L5.71191 200L14.2119 197L9.71191 204.5L4.21191 208.5Z" fill="#FFA051"/>
<path d="M5.71191 200L3.21191 183L0.711914 201L4.21191 208.5L5.71191 200Z" fill="#FFC691"/>
<path d="M5.71191 200L3.21191 183L14.2119 197L5.71191 200Z" fill="white"/>
<path d="M24.2119 111.5L17.7119 126L16.2119 119.5L24.2119 111.5Z" fill="#FFA051"/>
<path d="M16.2119 119.5L9.21191 115.5L12.7119 125L17.7119 126L16.2119 119.5Z" fill="#FFC691"/>
<path d="M24.2119 111.5L20.2119 111L9.21191 115.5L16.2119 119.5L24.2119 111.5Z" fill="white"/>
<path d="M118.871 128.13L94.866 136.121L100.874 127.362L118.871 128.13Z" fill="#FFA051"/>
<path d="M100.873 127.364L98.0264 114.847L90.6541 129.182L94.8656 136.122L100.873 127.364Z" fill="#FFBB7D"/>
<path d="M118.87 128.13L115.149 122.9L98.0262 114.846L100.873 127.363L118.87 128.13Z" fill="#FFEAD6"/>
<path d="M33.7119 153L42.2119 144.5V158L35.2119 168L33.7119 153Z" fill="#FFA051"/>
<path d="M33.7119 153L12.7119 155L15.7119 172.5L35.2119 168L33.7119 153Z" fill="#FFC691"/>
<path d="M42.2119 144.5L30.2119 142L12.7119 155L33.7119 153L42.2119 144.5Z" fill="white"/>
<path d="M124.712 246.5L139.712 236L157.212 231.5L152.212 244L120.712 260L124.712 246.5Z" fill="#FFA051"/>
<path d="M124.712 246.5L108.212 234L89.7119 235.5L104.212 255L120.712 260L124.712 246.5Z" fill="#FFB476"/>
<path d="M139.712 236L101.712 222L89.7119 235.5L108.212 234.5L124.712 246.5L139.712 236Z" fill="#FFC691"/>
<path d="M125.212 211L112.212 209L101.712 222L139.712 236L157.212 231.5L138.212 222L125.212 211Z" fill="white"/>
<path d="M216.593 203.156L224.673 207.602L230.597 214.512L223.836 215.03L209.602 204.348L216.593 203.156Z" fill="#FFA051"/>
<path d="M216.594 203.156L218.577 192.919L213.787 184.89L208.195 195.779L209.603 204.348L216.594 203.156Z" fill="#FFB476"/>
<path d="M224.674 207.602L222.556 187.314L213.787 184.891L218.351 193.031L216.594 203.156L224.674 207.602Z" fill="#FFC691"/>
<path d="M232.751 195.492L230.765 189.171L222.556 187.314L224.674 207.602L230.597 214.512L230.668 203.813L232.751 195.492Z" fill="white"/>
<path d="M2.49747 61.6879L-3.76802 51.4291L-6.93921 64.5514L-2.48411 75.9159L2.49747 61.6879Z" fill="#FFC691"/>
<path d="M2.49776 61.6881L22.4404 68.5651L15.4135 84.8708L-2.48381 75.9161L2.49776 61.6881Z" fill="#FFA051"/>
<path d="M-3.76865 51.4301L8.48283 51.8189L22.4394 68.5659L2.49684 61.6889L-3.76865 51.4301Z" fill="white"/>
<path d="M67.2119 261L74.2119 251.5V255.5L69.2119 266L67.2119 261Z" fill="#FFA051"/>
<path d="M67.2119 261L57.7119 259.5L62.7119 266H69.2119L67.2119 261Z" fill="#FFC691"/>
<path d="M74.2119 251.5L67.2119 249L57.7119 259.5L67.2119 261L74.2119 251.5Z" fill="white"/>
<path d="M209.212 108L216.212 98.5V102.5L211.212 113L209.212 108Z" fill="#FFA051"/>
<path d="M209.212 108L199.712 106.5L204.712 113H211.212L209.212 108Z" fill="#FFC691"/>
<path d="M216.212 98.5L209.212 96L199.712 106.5L209.212 108L216.212 98.5Z" fill="white"/>
<path d="M247.712 157L254.712 147.5V151.5L249.712 162L247.712 157Z" fill="#FFA051"/>
<path d="M247.712 157L238.212 155.5L243.212 162H249.712L247.712 157Z" fill="#FFC691"/>
<path d="M254.712 147.5L247.712 145L238.212 155.5L247.712 157L254.712 147.5Z" fill="white"/>
<path d="M22.7119 246.5L43.7119 233.5L42.2119 248L24.7119 260L22.7119 246.5Z" fill="#FFA051"/>
<path d="M22.7119 246.5L0.711914 238L7.71191 256L24.7119 260L22.7119 246.5Z" fill="#FFC691"/>
<path d="M43.7119 233.5L20.7119 227L0.711914 238L22.7119 246.5L43.7119 233.5Z" fill="white"/>
<path d="M229.909 282.997L264.712 276.5L259.712 293.5L233.212 297L229.909 282.997Z" fill="#FFA051"/>
<path d="M230.212 283L206.701 269.838L198.712 285.5L233.212 297L230.212 283Z" fill="#FFC691"/>
<path d="M264.212 276.5L231.015 262.818L206.655 270.115L230.212 283L264.212 276.5Z" fill="white"/>
<path d="M56.3154 291.514L69.6572 274.078L81.1337 286.101L60.8631 306.407L56.3154 291.514Z" fill="#FFA051"/>
<path d="M69.6572 274.078L28.8887 273.652L8.55946 304.266L56.3153 291.513L69.6572 274.078Z" fill="white"/>
<path d="M63.6705 215.765L91.7786 202.538L91.0338 215.056L62.6481 230.263L63.6705 215.765Z" fill="#FFA051"/>
<path d="M63.6701 215.764L26.7227 202.002L30.7119 213.164L62.5783 230.758L63.6701 215.764Z" fill="#FFC691"/>
<path d="M91.7782 202.538L64.2482 193.63L54.6413 197.333L40.5592 193.339L26.7228 202.003L63.6702 215.764L91.7782 202.538Z" fill="white"/>
<path d="M186.145 177.516L197.875 158.957L210.38 169.906L192.006 191.943L186.145 177.516Z" fill="#FFA051"/>
<path d="M186.146 177.516L139.722 194.487L149.78 206.152L192.007 191.943L186.146 177.516Z" fill="#FFC691"/>
<path d="M197.875 158.957L157.232 162.178L139.721 194.487L186.146 177.516L197.875 158.957Z" fill="white"/>
<path d="M199.712 246.5L222.212 241L219.712 253.5L198.712 259.5L199.712 246.5Z" fill="#FFB476"/>
<path d="M259.212 247.5L222.212 241L219.712 253.5L253.712 261.5L259.212 247.5Z" fill="#FFA051"/>
<path d="M199.712 246.5L166.212 234.5L161.712 244L198.712 259.5L199.712 246.5Z" fill="#FFC691"/>
<path d="M257.712 243L210.712 224.5L166.212 234.5L199.712 246.5L221.712 241L259.212 247.5L257.712 243Z" fill="white"/>
<path d="M152.212 284L157.212 279.5L159.212 289L153.712 296L152.212 284Z" fill="#FFA051"/>
<path d="M152.212 284L103.212 278L111.712 292L145.212 296.5L152.212 284Z" fill="#FFC691"/>
<path d="M157.212 279.5L127.212 268L102.712 278L152.212 284L157.212 279.5Z" fill="white"/>
<g filter="url(#filter0_n_677_4719)">
<rect x="-5" y="145" width="271" height="156" fill="url(#paint5_linear_677_4719)"/>
</g>
</g>
</g>
<defs>
<filter id="filter0_n_677_4719" x="-5" y="145" width="271" height="156" filterUnits="userSpaceOnUse" color-interpolation-filters="sRGB">
<feFlood flood-opacity="0" result="BackgroundImageFix"/>
<feBlend mode="normal" in="SourceGraphic" in2="BackgroundImageFix" result="shape"/>
<feTurbulence type="fractalNoise" baseFrequency="1.25 1.25" stitchTiles="stitch" numOctaves="3" result="noise" seed="9912" />
<feColorMatrix in="noise" type="luminanceToAlpha" result="alphaNoise" />
<feComponentTransfer in="alphaNoise" result="coloredNoise1">
<feFuncA type="discrete" tableValues="1 1 1 1 1 1 1 1 1 1 1 1 1 1 1 1 1 1 1 1 1 1 1 1 1 1 1 1 1 1 1 1 1 1 1 1 1 1 1 1 1 1 1 1 1 1 1 1 1 1 1 0 0 0 0 0 0 0 0 0 0 0 0 0 0 0 0 0 0 0 0 0 0 0 0 0 0 0 0 0 0 0 0 0 0 0 0 0 0 0 0 0 0 0 0 0 0 0 0 0 "/>
</feComponentTransfer>
<feComposite operator="in" in2="shape" in="coloredNoise1" result="noise1Clipped" />
<feComponentTransfer in="alphaNoise" result="coloredNoise2">
<feFuncA type="discrete" tableValues="0 0 0 0 0 0 0 0 0 0 0 0 0 0 0 0 0 0 0 0 0 0 0 0 0 0 0 0 0 0 0 0 0 0 0 0 0 0 0 0 0 0 0 0 0 0 0 0 0 1 1 1 1 1 1 1 1 1 1 1 1 1 1 1 1 1 1 1 1 1 1 1 1 1 1 1 1 1 1 1 1 1 1 1 1 1 1 1 1 1 1 1 1 1 1 1 1 1 1 1 "/>
</feComponentTransfer>
<feComposite operator="in" in2="shape" in="coloredNoise2" result="noise2Clipped" />
<feFlood flood-color="#FF8629" result="color1Flood" />
<feComposite operator="in" in2="noise1Clipped" in="color1Flood" result="color1" />
<feFlood flood-color="rgba(255, 255, 255, 0.25)" result="color2Flood" />
<feComposite operator="in" in2="noise2Clipped" in="color2Flood" result="color2" />
<feMerge result="effect1_noise_677_4719">
<feMergeNode in="shape" />
<feMergeNode in="color1" />
<feMergeNode in="color2" />
</feMerge>
</filter>
<linearGradient id="paint0_linear_677_4719" x1="137.892" y1="60" x2="143.712" y2="150" gradientUnits="userSpaceOnUse">
<stop stop-color="#FFF9F0"/>
<stop offset="1" stop-color="#FFDBAC"/>
</linearGradient>
<linearGradient id="paint1_linear_677_4719" x1="137.976" y1="0" x2="137.976" y2="150.095" gradientUnits="userSpaceOnUse">
<stop stop-color="white"/>
<stop offset="1" stop-color="#FFDBAC"/>
</linearGradient>
<linearGradient id="paint2_linear_677_4719" x1="137.976" y1="0" x2="137.976" y2="150.095" gradientUnits="userSpaceOnUse">
<stop stop-color="white"/>
<stop offset="1" stop-color="#FFDBAC"/>
</linearGradient>
<linearGradient id="paint3_linear_677_4719" x1="194.962" y1="150" x2="215.212" y2="163.5" gradientUnits="userSpaceOnUse">
<stop stop-color="#FF8D30"/>
<stop offset="1" stop-color="#FF9D4C"/>
</linearGradient>
<linearGradient id="paint4_linear_677_4719" x1="221.962" y1="141" x2="221.962" y2="158" gradientUnits="userSpaceOnUse">
<stop stop-color="#FF9D4C"/>
<stop offset="1" stop-color="#FFB476"/>
</linearGradient>
<linearGradient id="paint5_linear_677_4719" x1="130.5" y1="145" x2="130.5" y2="301" gradientUnits="userSpaceOnUse">
<stop stop-color="#FF8B00" stop-opacity="0"/>
<stop offset="1" stop-color="#FF8B00"/>
</linearGradient>
<clipPath id="clip0_677_4719">
<rect width="260" height="280" fill="white"/>
</clipPath>
<clipPath id="clip1_677_4719">
<rect width="270.577" height="300.533" fill="white" transform="translate(-5.28809)"/>
</clipPath>
</defs>
</svg>
