<svg width="64" height="64" viewBox="0 0 64 64" fill="none" xmlns="http://www.w3.org/2000/svg">
<g clip-path="url(#clip0_1191_9290)">
<path d="M57.9453 37.1982C57.9453 37.1988 57.9458 37.1992 57.9463 37.1992C57.9468 37.1992 57.9473 37.1997 57.9473 37.2002V47.6797L57.9465 56.4126C57.9464 57.3772 57.1643 58.1592 56.1997 58.1592H7.74673C6.78204 58.1592 6 57.3771 6 56.4124V49.4254C6 48.4608 6.78204 47.6787 7.74673 47.6787H14.1761C15.1408 47.6787 15.9229 46.8967 15.9229 45.932V38.946C15.9229 37.9813 16.7049 37.1992 17.6696 37.1992H25.848C26.8127 37.1992 27.5947 36.4172 27.5947 35.4525V29.3385C27.5947 28.3738 28.3768 27.5918 29.3415 27.5918H38.1048C39.0695 27.5918 39.8516 26.8098 39.8516 25.8451V18.8581C39.8516 17.8934 40.6336 17.1113 41.5983 17.1113H49.7796C50.7443 17.1113 51.5264 16.3293 51.5264 15.3646V10.1247C51.5264 9.15997 52.3084 8.37793 53.2731 8.37793H56.2005C57.1652 8.37793 57.9473 9.15997 57.9473 10.1247V17.1104C57.9473 17.1109 57.9468 17.1113 57.9463 17.1113C57.9458 17.1113 57.9453 17.1118 57.9453 17.1123V37.1982Z" fill="#D2E4FF"/>
<rect x="23.4463" y="22.4373" width="6.57079" height="18.6619" transform="rotate(-33.0936 23.4463 22.4373)" fill="#D2D2D2"/>
<path d="M28.0222 32.381C27.9592 32.278 27.9315 32.158 27.9826 32.0486C28.1563 31.6764 28.8592 30.6841 31.702 28.8313C34.5448 26.9786 35.7364 26.7362 36.147 26.7275C36.2678 26.725 36.3663 26.7987 36.4351 26.898L50.1007 46.623C50.3015 46.9128 50.2234 47.3112 49.928 47.5037L41.4261 53.0448C41.1307 53.2373 40.7346 53.1479 40.5506 52.8472L28.0222 32.381Z" fill="#FF7F1C"/>
<path d="M28.1922 10.3942C31.3002 8.20084 35.6671 7.07562 40.6879 8.64935C41.5129 8.90795 41.4253 10.0337 40.6026 10.2996C35.5051 11.9472 31.6439 14.7546 33.8837 19.1271C33.8861 19.1307 33.8851 19.1356 33.8814 19.1379L22.3505 26.653C21.9353 26.9236 21.3793 26.8064 21.1086 26.3912C20.838 25.9759 20.282 25.8587 19.8667 26.1293L18.3372 27.1261C17.9312 27.3907 17.8166 27.9343 18.0812 28.3403C18.3458 28.7463 18.2312 29.2899 17.8252 29.5545L13.302 32.5024C12.8782 32.7786 12.3107 32.659 12.0345 32.2352L7.37795 25.0902C7.10173 24.6664 7.22139 24.0989 7.6452 23.8227L12.1361 20.8959C12.5599 20.6197 13.1274 20.7393 13.4036 21.1631L13.5423 21.3759C13.8185 21.7997 14.386 21.9194 14.8098 21.6432L16.2915 20.6775C16.7153 20.4013 16.835 19.8338 16.5588 19.41L16.403 19.171C16.1268 18.7472 16.2465 18.1797 16.6703 17.9035L28.1922 10.3942Z" fill="#4F4F4F"/>
</g>
<defs>
<clipPath id="clip0_1191_9290">
<rect width="64" height="64" fill="white"/>
</clipPath>
</defs>
</svg>
