<svg width="68" height="38" viewBox="0 0 68 38" fill="none" xmlns="http://www.w3.org/2000/svg">
<rect x="0.299805" y="7.56665" width="67.4" height="30.2" rx="7.46667" fill="#292929"/>
<path d="M19.7247 21.0456C19.6422 20.6055 19.4703 20.2257 19.209 19.906C18.9512 19.5863 18.6298 19.3439 18.2448 19.1789C17.8632 19.0105 17.4472 18.9262 16.9969 18.9262C16.385 18.9262 15.8384 19.0809 15.3571 19.3903C14.8793 19.6963 14.5045 20.1483 14.233 20.7465C13.9614 21.3412 13.8256 22.0545 13.8256 22.8865C13.8256 23.7218 13.9614 24.4386 14.233 25.0367C14.5045 25.6315 14.8793 26.0818 15.3571 26.3877C15.8384 26.6937 16.385 26.8467 16.9969 26.8467C17.4438 26.8467 17.8563 26.7659 18.2344 26.6043C18.616 26.4393 18.9374 26.2004 19.1987 25.8876C19.46 25.5747 19.6353 25.2 19.7247 24.7634H21.3438C21.2338 25.4578 20.9794 26.0732 20.5807 26.6095C20.1853 27.1458 19.6766 27.5634 19.0543 27.8625C18.4355 28.1616 17.7446 28.3111 16.9814 28.3111C16.0635 28.3111 15.2454 28.0928 14.5269 27.6563C13.8084 27.2162 13.2463 26.5871 12.8407 25.769C12.4351 24.9508 12.2322 23.99 12.2322 22.8865C12.2322 21.783 12.4351 20.8221 12.8407 20.0039C13.2498 19.1858 13.8136 18.5584 14.532 18.1218C15.2505 17.6818 16.067 17.4618 16.9814 17.4618C17.7274 17.4618 18.4098 17.6044 19.0285 17.8898C19.6473 18.1751 20.1578 18.5876 20.56 19.1273C20.9657 19.6636 21.2269 20.303 21.3438 21.0456H19.7247ZM22.6059 17.6062H24.2096V26.7848H28.9897V28.1667H22.6059V17.6062ZM31.7637 28.1667H30.1601V17.6062H31.7637V28.1667ZM40.5934 21.0456C40.5109 20.6055 40.339 20.2257 40.0778 19.906C39.8199 19.5863 39.4985 19.3439 39.1135 19.1789C38.7319 19.0105 38.316 18.9262 37.8656 18.9262C37.2537 18.9262 36.7071 19.0809 36.2258 19.3903C35.748 19.6963 35.3733 20.1483 35.1017 20.7465C34.8301 21.3412 34.6943 22.0545 34.6943 22.8865C34.6943 23.7218 34.8301 24.4386 35.1017 25.0367C35.3733 25.6315 35.748 26.0818 36.2258 26.3877C36.7071 26.6937 37.2537 26.8467 37.8656 26.8467C38.3125 26.8467 38.725 26.7659 39.1032 26.6043C39.4848 26.4393 39.8062 26.2004 40.0675 25.8876C40.3287 25.5747 40.504 25.2 40.5934 24.7634H42.2126C42.1026 25.4578 41.8482 26.0732 41.4494 26.6095C41.0541 27.1458 40.5453 27.5634 39.9231 27.8625C39.3043 28.1616 38.6133 28.3111 37.8501 28.3111C36.9323 28.3111 36.1141 28.0928 35.3956 27.6563C34.6772 27.2162 34.1151 26.5871 33.7094 25.769C33.3038 24.9508 33.101 23.99 33.101 22.8865C33.101 21.783 33.3038 20.8221 33.7094 20.0039C34.1185 19.1858 34.6823 18.5584 35.4008 18.1218C36.1193 17.6818 36.9357 17.4618 37.8501 17.4618C38.5961 17.4618 39.2785 17.6044 39.8973 17.8898C40.5161 18.1751 41.0266 18.5876 41.4288 19.1273C41.8344 19.6636 42.0957 20.303 42.2126 21.0456H40.5934ZM43.4746 17.6062H45.0783V22.6441H45.2176L49.6315 17.6062H51.6478L47.3936 22.3605L51.6632 28.1667H49.7244L46.3314 23.4537L45.0783 24.8923V28.1667H43.4746V17.6062ZM54.1879 25.1244H52.7492L52.6152 17.6062H54.322L54.1879 25.1244ZM52.4398 27.2334C52.4364 27.0478 52.4811 26.8759 52.5739 26.7178C52.6667 26.5596 52.7922 26.4342 52.9503 26.3413C53.1119 26.2485 53.2872 26.2021 53.4763 26.2021C53.6585 26.2021 53.8287 26.2485 53.9868 26.3413C54.1449 26.4342 54.2704 26.5596 54.3632 26.7178C54.4595 26.8759 54.5076 27.0478 54.5076 27.2334C54.5076 27.4191 54.4595 27.5909 54.3632 27.7491C54.2704 27.9072 54.1449 28.0327 53.9868 28.1255C53.8287 28.2183 53.6585 28.2647 53.4763 28.2647C53.2872 28.2647 53.1119 28.2183 52.9503 28.1255C52.7922 28.0327 52.6667 27.9072 52.5739 27.7491C52.4811 27.5909 52.4364 27.4191 52.4398 27.2334Z" fill="white"/>
<path d="M31.7138 1.43348C32.8347 0.0323453 34.9658 0.0323412 36.0867 1.43348L41.3669 8.03377H26.4336L31.7138 1.43348Z" fill="#292929"/>
</svg>
