<svg width="48" height="49" viewBox="0 0 48 49" fill="none" xmlns="http://www.w3.org/2000/svg">
<circle cx="24" cy="24.3311" r="24" fill="#F3F2F0"/>
<path d="M36.915 15.6401C37.9426 15.6404 38.7754 16.4739 38.7754 17.5015V31.9233C38.7751 32.9507 37.9424 33.7834 36.915 33.7837H11.793C10.7654 33.7837 9.9319 32.9508 9.93164 31.9233V17.5015C9.93164 16.4737 10.7652 15.6401 11.793 15.6401H16.3945C16.7153 15.6401 17.0134 15.4749 17.1835 15.2029L18.963 12.3557C19.133 12.0837 19.4312 11.9185 19.752 11.9185H28.955C29.2758 11.9185 29.574 12.0837 29.744 12.3557L31.5236 15.2028C31.6936 15.4749 31.9918 15.6401 32.3126 15.6401H36.915Z" fill="#484848"/>
<circle cx="24.237" cy="24.3615" r="5.69891" stroke="#FFFCF7" stroke-width="1.86087"/>
<circle cx="35.7509" cy="18.4326" r="1.16304" fill="#FFFCF7"/>
</svg>
