<svg width="189" height="15" viewBox="0 0 189 15" fill="none" xmlns="http://www.w3.org/2000/svg">
<g opacity="0.5">
<path fill-rule="evenodd" clip-rule="evenodd" d="M34.017 3.03955L34.1323 1.65487V1.65365L35.9785 1.5L35.4785 7.49966L24.4023 8.42278L24.9023 2.42312L26.7486 2.26947L26.6333 3.65415L29.4021 3.42367L29.5173 2.03899L31.3635 1.88534L31.2483 3.27002L34.017 3.03955ZM29.2478 5.26991L26.4791 5.50039L26.4022 6.42351L29.171 6.19303L29.2478 5.26991ZM31.094 5.11565L31.0172 6.03877L33.786 5.8083L33.8628 4.88518L31.094 5.11565Z" fill="black"/>
<path d="M22.5959 2.53982L22.6776 1.6167L20.8314 1.77035L20.293 8.23157L22.1392 8.07731L22.4465 4.38545L23.8312 4.27021L23.9848 2.42397L22.5959 2.53982Z" fill="black"/>
<path d="M14.217 9.65479L12.3714 9.80844L12.0635 13.5003L21.755 12.6924L21.9087 10.8468L14.0634 11.5004L14.217 9.65479Z" fill="black"/>
<path d="M14.4491 6.88493L19.5257 6.46179L19.3714 8.30802L12.4492 8.88482L12.9876 2.4236L19.9098 1.84619L19.7561 3.69304L14.6796 4.11619L14.4491 6.88493Z" fill="black"/>
<path d="M24.1709 11.1927L28.7859 10.808L28.5938 13.1152L30.4394 12.9615L30.6321 10.6543L35.2471 10.2696L35.4008 8.42334L24.3245 9.34646L24.1709 11.1927Z" fill="black"/>
<path d="M49.9548 9.76967L58.2622 9.07703L58.2238 9.53859L49.9164 10.2312L49.6475 13.4615L59.8005 12.6152L59.9158 11.2312L51.6089 11.9232L51.6473 11.4617L59.9542 10.7696L60.2231 7.54297L50.0706 8.38499L49.9548 9.76967Z" fill="black"/>
<path d="M60.7231 1.53955L60.3774 5.69298L60.8389 5.65456L60.7231 7.03863L49.6475 7.96175L49.7627 6.57768L58.5311 5.84663L58.6079 4.92351L50.3011 5.61615L50.4163 4.23147L58.7238 3.53944L58.7622 3.07788L50.4547 3.76991L50.5706 2.38524L60.7231 1.53955Z" fill="black"/>
<path d="M9.38406 1.65463L8.46094 12.7308L10.3066 12.5766L11.2297 1.50098L9.38406 1.65463Z" fill="black"/>
<path fill-rule="evenodd" clip-rule="evenodd" d="M6.53805 2.80834L6.61487 1.88522L6.61426 1.88461L8.4605 1.73096L7.53738 12.8072L5.69114 12.9608L6.07588 8.34583L4.69181 8.46107L4.31012 13.0761L2.46145 13.2303L3.23031 4.00034L0 4.26984L0.15365 2.4236L5.22654 2.00106L5.15032 2.92418L6.53805 2.80834ZM4.84485 6.61544L6.23014 6.5002L6.23075 6.50081L6.3844 4.65457L4.99789 4.76981L4.84485 6.61544Z" fill="black"/>
<path d="M39.5812 2.27002L37.735 2.42367L36.8125 13.4999L38.6581 13.3462L39.3502 5.03938L41.1964 4.88512L40.5044 13.192L42.35 13.0383L43.1963 2.88523L39.5044 3.19314L39.5812 2.27002Z" fill="black"/>
<path d="M46.8885 2.57775L46.9653 1.65463L48.8116 1.50098L47.8885 12.5766L46.0428 12.7308L46.4269 8.11585L43.6582 8.34632L43.8119 6.50009L46.5812 6.26961L46.7349 4.42337L43.9655 4.65446L44.1198 2.80822L46.8885 2.57775Z" fill="black"/>
<path fill-rule="evenodd" clip-rule="evenodd" d="M71.0984 9.0388L63.7147 9.65401L63.7915 8.73089L61.9453 8.88454L61.5605 13.4995L72.6368 12.5764L73.0215 7.96143L71.1752 8.11508L71.0984 9.03819V9.0388ZM63.522 11.9618L63.5988 11.0387L70.9826 10.4235L70.9057 11.3466L63.522 11.9618Z" fill="black"/>
<path d="M71.6365 2.57775L71.7133 1.65463L73.5596 1.50098L73.0596 7.50003L71.2134 7.65429L71.4829 4.42337L70.0982 4.53922L70.0214 5.46173L64.0217 5.9617L63.9449 6.88482L69.9445 6.38485L69.8287 7.76953L61.9834 8.42315L62.2913 4.73128L68.7519 4.1929L68.8287 3.26978L62.3681 3.80816L62.4834 2.42349L70.3287 1.76986L70.2518 2.69298L71.6365 2.57775Z" fill="black"/>
<path d="M86.3596 1.52002H85.5596V13.48H86.3596V1.52002Z" fill="black"/>
<g clip-path="url(#clip0_2104_6638)">
<path d="M100.217 7.65643L103.814 12.0923L104.87 11.2684L101.823 7.58294L104.454 4.2564L103.384 3.47801L100.217 7.65643ZM98.3594 0.300457V11.8813H99.7267V0L98.3594 0.300457ZM106.081 9.67964C106.081 8.85026 106.357 8.21785 106.907 7.78391C107.457 7.34947 108.256 7.1315 109.307 7.1315H110.884V6.60807C110.884 5.33925 110.329 4.70484 109.218 4.70484C108.861 4.70484 108.487 4.75583 108.097 4.85582C107.705 4.95431 107.345 5.08079 107.018 5.23027L106.617 4.2569C107.023 4.02644 107.461 3.84896 107.933 3.72398C108.402 3.59899 108.861 3.536 109.308 3.536C111.23 3.536 112.191 4.57086 112.191 6.63807V11.8818H111.181L111.017 10.982C110.626 11.3028 110.187 11.5613 109.717 11.7484C109.255 11.9273 108.817 12.0173 108.4 12.0173C107.677 12.0173 107.111 11.8098 106.698 11.3949C106.287 10.98 106.081 10.4085 106.081 9.67964ZM108.648 10.9085C108.836 10.9085 109.03 10.8835 109.232 10.8325C109.439 10.7815 109.642 10.7171 109.84 10.6395C110.039 10.5601 110.23 10.4619 110.41 10.3461C110.587 10.2316 110.745 10.1086 110.884 9.9786V8.06137H109.462C108.742 8.06137 108.216 8.18635 107.886 8.43582C107.556 8.68528 107.391 9.08073 107.391 9.62015C107.391 10.4795 107.809 10.9085 108.648 10.9085ZM115.992 11.8818H114.626V0.300957L115.993 0.000499655L115.992 11.8818ZM119.649 3.47651L120.72 4.2564L118.089 7.58144L121.136 11.2669L120.08 12.0928L116.483 7.65693L119.649 3.47651ZM122.347 9.67964C122.347 8.85026 122.623 8.21785 123.171 7.78391C123.723 7.34947 124.523 7.1315 125.574 7.1315H127.148V6.60807C127.148 5.33925 126.594 4.70484 125.484 4.70484C125.127 4.70484 124.753 4.75583 124.361 4.85582C123.969 4.95431 123.611 5.08079 123.284 5.23027L122.883 4.2569C123.289 4.02644 123.726 3.84896 124.198 3.72398C124.646 3.60198 125.109 3.53879 125.574 3.536C127.496 3.536 128.457 4.57086 128.457 6.63807V11.8818H127.445L127.282 10.982C126.891 11.3037 126.452 11.5622 125.981 11.7484C125.521 11.9273 125.083 12.0173 124.667 12.0173C123.943 12.0173 123.375 11.8098 122.964 11.3949C122.552 10.98 122.347 10.4085 122.347 9.67964ZM124.915 10.9085C125.101 10.9085 125.296 10.8835 125.498 10.8325C125.705 10.7815 125.908 10.7171 126.106 10.6395C126.491 10.4857 126.845 10.2616 127.148 9.9786V8.06137H125.728C125.008 8.06137 124.482 8.18635 124.152 8.43582C123.82 8.68528 123.656 9.08073 123.656 9.62015C123.656 10.4795 124.074 10.9085 124.915 10.9085ZM133.959 3.552C135.089 3.552 135.977 3.92045 136.62 4.66035C137.265 5.39874 137.586 6.4581 137.586 7.8359C137.586 9.19471 137.266 10.2386 136.627 10.9675C135.989 11.6974 135.098 12.0623 133.959 12.0623C132.83 12.0623 131.942 11.6974 131.299 10.9675C130.654 10.2386 130.332 9.19471 130.332 7.8359C130.332 6.4581 130.655 5.39874 131.306 4.66035C131.954 3.92045 132.84 3.552 133.959 3.552ZM133.959 4.66035C133.246 4.66035 132.698 4.92931 132.316 5.46873C131.935 6.00866 131.743 6.79755 131.743 7.8359C131.743 8.86576 131.935 9.64265 132.316 10.1661C132.698 10.69 133.246 10.9535 133.959 10.9535C134.683 10.9535 135.235 10.69 135.617 10.1661C135.998 9.64265 136.189 8.86626 136.189 7.8364C136.189 6.79755 135.998 6.00866 135.617 5.46873C135.235 4.92931 134.683 4.66035 133.959 4.66035Z" fill="#1E1E1E"/>
<path d="M139.689 11.2324L141.222 9.70013L142.753 11.2324L141.222 12.7647L139.689 11.2324ZM139.986 0.712891H142.44L142.113 8.13785H140.331L139.986 0.712891ZM144.415 3.58949H145.9L146.197 4.38738C146.869 3.72997 147.838 3.34002 148.761 3.34002C149.761 3.34002 150.479 3.68248 150.885 4.38738C151.574 3.71397 152.511 3.34002 153.418 3.34002C155.059 3.34002 155.95 4.27639 155.95 6.3556V11.8263H153.855V6.48008C153.855 5.55921 153.512 5.16777 152.543 5.16777C152.105 5.16777 151.574 5.26275 151.23 5.40273V11.8263H149.135V6.48008C149.135 5.55921 148.806 5.16777 147.838 5.16777C147.478 5.16777 146.854 5.26275 146.509 5.40273V11.8263H144.415V3.58949ZM159.844 11.8888V14.9994H157.749V3.58899H159.234L159.484 4.27639C160.032 3.74547 160.735 3.33952 161.844 3.33952C164.002 3.33952 164.97 4.9493 164.97 7.55893C164.97 10.295 163.408 12.0613 161.172 12.0613C160.724 12.0684 160.276 12.0103 159.844 11.8888ZM159.844 5.32375V10.4355C159.985 10.4675 160.313 10.483 160.594 10.483C162.252 10.483 162.846 9.34068 162.846 7.55843C162.846 6.02865 162.486 5.02679 161.125 5.02679C160.719 5.02679 160.204 5.15177 159.844 5.32375ZM169.524 6.80904H170.837V6.52808C170.837 5.6212 170.556 5.10478 169.32 5.10478C168.555 5.10478 167.851 5.26125 167.101 5.6527L166.523 4.2139C167.321 3.66698 168.492 3.33852 169.572 3.33852C171.68 3.33852 172.791 4.36988 172.791 6.51208V11.8263H171.321L171.087 11.1234C170.243 11.7788 169.336 12.0463 168.602 12.0463C166.992 12.0463 166.101 11.0919 166.101 9.45067C166.101 7.71591 167.289 6.80904 169.524 6.80904ZM170.837 9.76362V8.15385H169.712C168.586 8.15385 167.992 8.60729 167.992 9.43467C167.992 10.0286 168.336 10.4205 169.025 10.4205C169.744 10.4205 170.463 10.0921 170.837 9.76362ZM180.422 5.46523C179.828 5.21526 179.266 5.02729 178.423 5.02729C177.203 5.02729 176.373 5.76218 176.373 7.70041C176.373 9.62314 177.218 10.3415 178.609 10.3415C179.327 10.3415 180.157 10.1066 180.719 9.87261L181.204 11.3259C180.47 11.7633 179.391 12.0608 178.25 12.0608C175.577 12.0608 174.265 10.4825 174.265 7.71641C174.265 5.05928 175.577 3.33852 178.28 3.33852C179.438 3.33852 180.391 3.61998 181.048 4.04342L180.422 5.46523ZM181.805 3.74547L183.117 3.58949V1.93172L185.244 1.47828V3.58899H187.713V5.16677H185.244V8.74627C185.244 10.0296 185.571 10.2631 186.18 10.2631C186.602 10.2631 187.071 10.1541 187.54 9.98209L188.026 11.4514C187.588 11.7324 186.602 12.0613 185.618 12.0613C183.883 12.0613 183.117 10.998 183.117 8.88725V5.16677H181.805V3.74547Z" fill="#54555A"/>
</g>
</g>
<defs>
<clipPath id="clip0_2104_6638">
<rect width="89.6663" height="15" fill="white" transform="translate(98.3594)"/>
</clipPath>
</defs>
</svg>
