<svg width="294" height="14" viewBox="0 0 294 14" fill="none" xmlns="http://www.w3.org/2000/svg">
<g opacity="0.5">
<path d="M0.0205078 1.20355V13.2536H1.44051V0.893555L0.0205078 1.20355ZM1.95051 8.85355L5.69051 13.4636L6.79051 12.6036L3.62051 8.77355L6.36051 5.31355L5.25051 4.50355L1.95051 8.85355Z" fill="black"/>
<path d="M10.7208 12.2337C10.9208 12.2337 11.1208 12.2037 11.3308 12.1537C11.5408 12.1037 11.7508 12.0337 11.9608 11.9537C12.1708 11.8737 12.3708 11.7637 12.5508 11.6537C12.7408 11.5337 12.9008 11.4037 13.0408 11.2737V9.28373H11.5608C10.8108 9.28373 10.2608 9.41373 9.92078 9.67373C9.58078 9.93373 9.40078 10.3437 9.40078 10.9037C9.40078 11.7937 9.84078 12.2437 10.7108 12.2437M8.05078 10.9637C8.05078 10.1037 8.34078 9.44373 8.91078 8.99373C9.48078 8.54373 10.3108 8.31373 11.4108 8.31373H13.0508V7.76373C13.0508 6.44373 12.4708 5.78373 11.3208 5.78373C10.9508 5.78373 10.5608 5.83373 10.1508 5.94373C9.74078 6.04373 9.37078 6.17373 9.03078 6.33373L8.61078 5.32373C9.03078 5.08373 9.49078 4.90373 9.98078 4.77373C10.4708 4.64373 10.9508 4.57373 11.4108 4.57373C13.4108 4.57373 14.4108 5.65373 14.4108 7.80373V13.2537H13.3608L13.1908 12.3137C12.7708 12.6537 12.3208 12.9237 11.8408 13.1137C11.3608 13.3037 10.9108 13.3937 10.4708 13.3937C9.72078 13.3937 9.13078 13.1737 8.70078 12.7437C8.27078 12.3137 8.06078 11.7137 8.06078 10.9637" fill="black"/>
<path d="M22.1604 4.51355L23.2704 5.32355L20.5304 8.78355L23.7004 12.6136L22.6004 13.4736L18.8604 8.86355L22.1504 4.51355H22.1604ZM18.3604 13.2536H16.9404V1.20355L18.3604 0.893555V13.2536Z" fill="black"/>
<path d="M27.6407 12.2337C27.8307 12.2337 28.0407 12.2037 28.2507 12.1537C28.4607 12.1037 28.6707 12.0337 28.8807 11.9537C29.0907 11.8737 29.2907 11.7637 29.4707 11.6537C29.6507 11.5337 29.8207 11.4037 29.9607 11.2737V9.28373H28.4807C27.7307 9.28373 27.1807 9.41373 26.8407 9.67373C26.5007 9.93373 26.3207 10.3437 26.3207 10.9037C26.3207 11.7937 26.7607 12.2437 27.6307 12.2437M24.9707 10.9637C24.9707 10.1037 25.2607 9.44373 25.8307 8.99373C26.4007 8.54373 27.2307 8.31373 28.3307 8.31373H29.9707V7.76373C29.9707 6.44373 29.3907 5.78373 28.2407 5.78373C27.8707 5.78373 27.4807 5.83373 27.0707 5.94373C26.6607 6.04373 26.2907 6.17373 25.9507 6.33373L25.5307 5.32373C25.9507 5.08373 26.4107 4.90373 26.9007 4.77373C27.3907 4.64373 27.8707 4.57373 28.3307 4.57373C30.3307 4.57373 31.3307 5.65373 31.3307 7.80373V13.2537H30.2807L30.1107 12.3137C29.6907 12.6537 29.2407 12.9237 28.7607 13.1137C28.2807 13.3037 27.8207 13.3937 27.3907 13.3937C26.6407 13.3937 26.0507 13.1737 25.6207 12.7437C25.1907 12.3137 24.9807 11.7137 24.9807 10.9637" fill="black"/>
<path d="M37.0505 5.7435C36.3105 5.7435 35.7405 6.0235 35.3405 6.5835C34.9405 7.1435 34.7405 7.9635 34.7405 9.0435C34.7405 10.1235 34.9405 10.9235 35.3405 11.4635C35.7405 12.0135 36.3105 12.2835 37.0505 12.2835C37.7905 12.2835 38.3805 12.0135 38.7705 11.4635C39.1705 10.9135 39.3705 10.1135 39.3705 9.0435C39.3705 7.9735 39.1705 7.1435 38.7705 6.5835C38.3705 6.0235 37.8005 5.7435 37.0505 5.7435ZM37.0505 4.5835C38.2205 4.5835 39.1505 4.9635 39.8205 5.7335C40.4905 6.5035 40.8305 7.6035 40.8305 9.0335C40.8305 10.4635 40.5005 11.5335 39.8305 12.2935C39.1705 13.0535 38.2405 13.4335 37.0505 13.4335C35.8605 13.4335 34.9505 13.0535 34.2805 12.2935C33.6105 11.5335 33.2705 10.4535 33.2705 9.0335C33.2705 7.6135 33.6105 6.5035 34.2805 5.7335C34.9605 4.9635 35.8805 4.5835 37.0405 4.5835" fill="black"/>
<path d="M53.6301 1.51367H52.8301V13.4737H53.6301V1.51367Z" fill="black"/>
<path fill-rule="evenodd" clip-rule="evenodd" d="M99.6479 3.01269L99.7631 1.62801V1.62679L101.609 1.47314L101.109 7.47281L90.0332 8.39593L90.5332 2.39626L92.3794 2.24261L92.2642 3.62729L95.0329 3.39682L95.1482 2.01214L96.9944 1.85849L96.8792 3.24317L99.6479 3.01269ZM94.8787 5.24306L92.1099 5.47353L92.0331 6.39665L94.8018 6.16617L94.8787 5.24306ZM96.7249 5.0888L96.6481 6.01191L99.4168 5.78144L99.4936 4.85832L96.7249 5.0888Z" fill="black"/>
<path d="M88.2267 2.51296L88.3084 1.58984L86.4622 1.74349L85.9238 8.20472L87.7701 8.05046L88.0774 4.35859L89.462 4.24335L89.6157 2.39712L88.2267 2.51296Z" fill="black"/>
<path d="M79.8479 9.62793L78.0022 9.78158L77.6943 13.4734L87.3859 12.6656L87.5395 10.8199L79.6942 11.4736L79.8479 9.62793Z" fill="black"/>
<path d="M80.08 6.85808L85.1565 6.43493L85.0023 8.28117L78.0801 8.85797L78.6185 2.39674L85.5406 1.81934L85.387 3.66618L80.3104 4.08933L80.08 6.85808Z" fill="black"/>
<path d="M89.8018 11.1658L94.4167 10.7811L94.2247 13.0883L96.0703 12.9346L96.263 10.6275L100.878 10.2427L101.032 8.39648L89.9554 9.3196L89.8018 11.1658Z" fill="black"/>
<path d="M115.586 9.74282L123.893 9.05017L123.855 9.51173L115.547 10.2044L115.278 13.4347L125.431 12.5884L125.547 11.2043L117.24 11.8964L117.278 11.4348L125.585 10.7428L125.854 7.51611L115.701 8.35814L115.586 9.74282Z" fill="black"/>
<path d="M126.354 1.5127L126.008 5.66612L126.47 5.62771L126.354 7.01178L115.278 7.9349L115.394 6.55083L124.162 5.81977L124.239 4.89665L115.932 5.5893L116.047 4.20462L124.355 3.51258L124.393 3.05102L116.086 3.74306L116.201 2.35838L126.354 1.5127Z" fill="black"/>
<path d="M75.0149 1.62777L74.0918 12.704L75.9374 12.5497L76.8605 1.47412L75.0149 1.62777Z" fill="black"/>
<path fill-rule="evenodd" clip-rule="evenodd" d="M72.1689 2.78148L72.2457 1.85836L72.2451 1.85775L74.0914 1.7041L73.1682 12.7803L71.322 12.934L71.7067 8.31897L70.3227 8.43421L69.941 13.0492L68.0923 13.2035L68.8612 3.97349L65.6309 4.24298L65.7845 2.39675L70.8574 1.97421L70.7812 2.89733L72.1689 2.78148ZM70.4757 6.58858L71.861 6.47335L71.8616 6.47396L72.0153 4.62772L70.6287 4.74296L70.4757 6.58858Z" fill="black"/>
<path d="M105.212 2.24316L103.366 2.39681L102.443 13.473L104.289 13.3194L104.981 5.01252L106.827 4.85826L106.135 13.1651L107.981 13.0115L108.827 2.85837L105.135 3.16628L105.212 2.24316Z" fill="black"/>
<path d="M112.519 2.55089L112.596 1.62777L114.442 1.47412L113.519 12.5497L111.674 12.704L112.058 8.08899L109.289 8.31947L109.443 6.47323L112.212 6.24276L112.366 4.39652L109.596 4.6276L109.751 2.78136L112.519 2.55089Z" fill="black"/>
<path fill-rule="evenodd" clip-rule="evenodd" d="M136.729 9.01195L129.346 9.62716L129.422 8.70404L127.576 8.85769L127.191 13.4727L138.268 12.5496L138.652 7.93457L136.806 8.08822L136.729 9.01134V9.01195ZM129.153 11.935L129.23 11.0118L136.613 10.3966L136.537 11.3197L129.153 11.935Z" fill="black"/>
<path d="M137.267 2.55089L137.344 1.62777L139.19 1.47412L138.69 7.47317L136.844 7.62743L137.114 4.39652L135.729 4.51236L135.652 5.43487L129.653 5.93485L129.576 6.85796L135.575 6.35799L135.46 7.74267L127.614 8.39629L127.922 4.70443L134.383 4.16604L134.46 3.24292L127.999 3.78131L128.114 2.39663L135.96 1.74301L135.883 2.66613L137.267 2.55089Z" fill="black"/>
<path d="M151.99 1.51367H151.19V13.4737H151.99V1.51367Z" fill="black"/>
<path d="M172.01 4.414H169.07V13.254H166.92V4.414H163.99V2.354H172.01V4.414Z" fill="#1E1E1E"/>
<path d="M179.95 11.204V13.264H173.21V2.354H179.87V4.414H175.35V6.734H179.48V8.754H175.35V11.194H179.94L179.95 11.204Z" fill="#1E1E1E"/>
<path d="M180.88 7.80379C180.88 4.61379 183.25 2.13379 186.55 2.13379C188.54 2.13379 190.3 3.14379 191.24 4.70379L189.39 5.77379C188.86 4.80379 187.8 4.21379 186.56 4.21379C184.43 4.21379 183.03 5.69379 183.03 7.79379C183.03 9.89379 184.43 11.3638 186.56 11.3638C187.81 11.3638 188.88 10.7738 189.39 9.82379L191.24 10.8938C190.32 12.4538 188.56 13.4638 186.55 13.4638C183.25 13.4638 180.88 10.9738 180.88 7.79379V7.80379Z" fill="#1E1E1E"/>
<path d="M200.891 2.354V13.254H198.761V8.734H194.711V13.254H192.561V2.354H194.711V6.684H198.761V2.354H200.891Z" fill="#1E1E1E"/>
<path d="M208.961 4.414V6.994H213.201V9.054H208.961V13.254H206.811V2.354H213.321V4.414H208.961Z" fill="#1E1E1E"/>
<path d="M214.391 7.80379C214.391 4.61379 216.901 2.13379 220.041 2.13379C223.181 2.13379 225.711 4.61379 225.711 7.80379C225.711 10.9938 223.191 13.4738 220.041 13.4738C216.891 13.4738 214.391 10.9838 214.391 7.80379ZM223.561 7.80379C223.561 5.70379 222.021 4.22379 220.041 4.22379C218.061 4.22379 216.521 5.70379 216.521 7.80379C216.521 9.90379 218.061 11.3738 220.041 11.3738C222.021 11.3738 223.561 9.89379 223.561 7.80379Z" fill="#1E1E1E"/>
<path d="M231.011 9.474H229.371V13.254H227.221V2.354H231.581C233.591 2.354 235.211 3.974 235.211 5.964C235.211 7.334 234.351 8.564 233.111 9.144L235.521 13.254H233.201L231.001 9.474H231.011ZM229.371 7.584H231.581C232.391 7.584 233.061 6.864 233.061 5.964C233.061 5.064 232.391 4.364 231.581 4.364H229.371V7.584Z" fill="#1E1E1E"/>
<path d="M255.521 13.254H253.391V6.184L250.321 11.244H250.071L247.001 6.194V13.244H244.851V2.354H247.061L250.191 7.504L253.301 2.354H255.511V13.254H255.521Z" fill="#1E1E1E"/>
<path d="M265.32 6.014C265.32 8.054 263.7 9.674 261.6 9.674H259.68V13.254H257.53V2.354H261.59C263.69 2.354 265.31 3.974 265.31 6.014H265.32ZM263.19 6.014C263.19 5.064 262.52 4.364 261.6 4.364H259.68V7.664H261.6C262.52 7.664 263.19 6.944 263.19 6.014Z" fill="#1E1E1E"/>
<path d="M271.97 11.294H267.63L266.98 13.254H264.66L268.47 2.354H271.13L274.96 13.254H272.62L271.97 11.294ZM271.3 9.284L269.81 4.834L268.32 9.284H271.31H271.3Z" fill="#1E1E1E"/>
<path d="M275.13 7.80379C275.13 4.61379 277.5 2.13379 280.8 2.13379C282.79 2.13379 284.55 3.14379 285.49 4.70379L283.64 5.77379C283.11 4.80379 282.05 4.21379 280.81 4.21379C278.68 4.21379 277.28 5.69379 277.28 7.79379C277.28 9.89379 278.68 11.3638 280.81 11.3638C282.06 11.3638 283.13 10.7738 283.64 9.82379L285.49 10.8938C284.57 12.4538 282.81 13.4638 280.8 13.4638C277.5 13.4638 275.13 10.9738 275.13 7.79379V7.80379Z" fill="#1E1E1E"/>
<path d="M293.98 4.414H291.04V13.254H288.89V4.414H285.96V2.354H293.98V4.414Z" fill="#1E1E1E"/>
<path d="M241.74 13.3937C242.525 13.3937 243.16 12.758 243.16 11.9737C243.16 11.1895 242.525 10.5537 241.74 10.5537C240.956 10.5537 240.32 11.1895 240.32 11.9737C240.32 12.758 240.956 13.3937 241.74 13.3937Z" fill="#1E1E1E"/>
<path d="M241.741 9.13379C242.061 9.13379 242.361 9.18379 242.641 9.28379L243.381 2.27379C242.851 2.18379 242.301 2.13379 241.741 2.13379C241.181 2.13379 240.631 2.18379 240.101 2.27379L240.841 9.28379C241.121 9.18379 241.431 9.13379 241.741 9.13379Z" fill="#1E1E1E"/>
</g>
</svg>


