<svg width="216" height="33" viewBox="0 0 216 33" fill="none" xmlns="http://www.w3.org/2000/svg">
<rect width="215.704" height="33" rx="16.5" fill="#EBEBEB" fill-opacity="0.5"/>
<path fill-rule="evenodd" clip-rule="evenodd" d="M47.9772 12.2022L48.0882 10.868V10.8668L49.8672 10.7188L49.3854 16.4998L38.7129 17.3892L39.1946 11.6082L40.9736 11.4602L40.8626 12.7944L43.5304 12.5723L43.6414 11.2381L45.4204 11.09L45.3093 12.4243L47.9772 12.2022ZM43.3818 14.3513L40.7139 14.5733L40.6399 15.4628L43.3077 15.2407L43.3818 14.3513ZM45.1607 14.2026L45.0867 15.0921L47.7545 14.87L47.8285 13.9805L45.1607 14.2026Z" fill="#707070"/>
<path d="M36.9729 11.7205L37.0516 10.8311L35.2727 10.9791L34.7539 17.2048L36.5329 17.0562L36.829 13.4989L38.1632 13.3879L38.3112 11.6089L36.9729 11.7205Z" fill="#707070"/>
<path d="M28.8993 18.5759L27.1209 18.724L26.8242 22.2813L36.1625 21.5029L36.3106 19.7245L28.7512 20.3543L28.8993 18.5759Z" fill="#707070"/>
<path d="M29.1223 15.9076L34.0138 15.4999L33.8652 17.2788L27.1953 17.8346L27.7141 11.6089L34.384 11.0525L34.2359 12.832L29.3444 13.2398L29.1223 15.9076Z" fill="#707070"/>
<path d="M38.4902 20.0583L42.937 19.6876L42.752 21.9107L44.5303 21.7627L44.716 19.5396L49.1628 19.1688L49.3108 17.3899L38.6383 18.2794L38.4902 20.0583Z" fill="#707070"/>
<path d="M63.3342 18.6871L71.3389 18.0197L71.3019 18.4644L63.2972 19.1318L63.0381 22.2444L72.8211 21.4289L72.9322 20.0953L64.9281 20.7621L64.9651 20.3174L72.9692 19.6506L73.2283 16.5415L63.4458 17.3528L63.3342 18.6871Z" fill="#707070"/>
<path d="M73.71 10.7568L73.3769 14.7589L73.8216 14.7219L73.71 16.0555L63.0381 16.945L63.1491 15.6113L71.598 14.9069L71.672 14.0175L63.6679 14.6849L63.7789 13.3506L71.7836 12.6838L71.8206 12.2391L63.8159 12.9059L63.9276 11.5717L73.71 10.7568Z" fill="#707070"/>
<path d="M24.243 10.868L23.3535 21.5405L25.1319 21.3919L26.0214 10.72L24.243 10.868Z" fill="#707070"/>
<path fill-rule="evenodd" clip-rule="evenodd" d="M21.5 11.9795L21.574 11.09L21.5734 11.0895L23.3523 10.9414L22.4629 21.6139L20.6839 21.762L21.0546 17.3152L19.721 17.4262L19.3532 21.873L17.5719 22.0217L18.3128 13.1281L15.2002 13.3878L15.3482 11.6088L20.2362 11.2017L20.1628 12.0911L21.5 11.9795ZM19.8685 15.6479L21.2033 15.5368L21.2039 15.5374L21.3519 13.7585L20.0159 13.8695L19.8685 15.6479Z" fill="#707070"/>
<path d="M53.3387 11.4607L51.5598 11.6087L50.6709 22.2813L52.4493 22.1332L53.1161 14.1291L54.895 13.9805L54.2282 21.9846L56.0066 21.8365L56.822 12.0535L53.2647 12.3502L53.3387 11.4607Z" fill="#707070"/>
<path d="M60.3792 11.7575L60.4532 10.868L62.2322 10.72L61.3427 21.3919L59.5643 21.5405L59.9344 17.0938L57.2666 17.3158L57.4147 15.5369L60.0831 15.3148L60.2311 13.5359L57.5627 13.7585L57.7113 11.9796L60.3792 11.7575Z" fill="#707070"/>
<path fill-rule="evenodd" clip-rule="evenodd" d="M83.7069 17.9824L76.5922 18.5752L76.6663 17.6858L74.8873 17.8338L74.5166 22.2806L85.1891 21.3911L85.5598 16.9443L83.7809 17.0924L83.7069 17.9819V17.9824ZM76.4066 20.7989L76.4806 19.9094L83.5952 19.3167L83.5212 20.2061L76.4066 20.7989Z" fill="#707070"/>
<path d="M84.2251 11.7575L84.2992 10.868L86.0781 10.72L85.5964 16.5004L83.8174 16.649L84.0771 13.5359L82.7429 13.6475L82.6688 14.5364L76.8878 15.0181L76.8138 15.9076L82.5948 15.4258L82.4832 16.7601L74.9238 17.3899L75.2205 13.8325L81.4457 13.3138L81.5197 12.4243L75.2945 12.9431L75.4056 11.6089L82.9649 10.9791L82.8909 11.8685L84.2251 11.7575Z" fill="#707070"/>
<path d="M98.8381 10.8191H98.0781V22.1811H98.8381V10.8191Z" fill="#707070"/>
<g clip-path="url(#clip0_2140_748)">
<path d="M112.696 16.6564L116.293 21.0923L117.349 20.2684L114.302 16.5829L116.933 13.2564L115.863 12.478L112.696 16.6564ZM110.838 9.30046V20.8813H112.205V9L110.838 9.30046ZM118.559 18.6796C118.559 17.8503 118.835 17.2178 119.385 16.7839C119.935 16.3495 120.735 16.1315 121.786 16.1315H123.362V15.6081C123.362 14.3393 122.807 13.7048 121.696 13.7048C121.339 13.7048 120.965 13.7558 120.575 13.8558C120.183 13.9543 119.823 14.0808 119.496 14.2303L119.095 13.2569C119.501 13.0264 119.939 12.849 120.412 12.724C120.881 12.599 121.339 12.536 121.786 12.536C123.709 12.536 124.67 13.5709 124.67 15.6381V20.8818H123.659L123.496 19.982C123.104 20.3028 122.666 20.5613 122.196 20.7484C121.733 20.9273 121.296 21.0173 120.879 21.0173C120.155 21.0173 119.589 20.8098 119.176 20.3949C118.765 19.98 118.559 19.4085 118.559 18.6796ZM121.127 19.9085C121.315 19.9085 121.508 19.8835 121.71 19.8325C121.917 19.7815 122.12 19.7171 122.318 19.6395C122.517 19.5601 122.708 19.4619 122.888 19.3461C123.065 19.2316 123.223 19.1086 123.362 18.9786V17.0614H121.94C121.22 17.0614 120.695 17.1864 120.364 17.4358C120.034 17.6853 119.869 18.0807 119.869 18.6202C119.869 19.4795 120.287 19.9085 121.127 19.9085ZM128.471 20.8818H127.104V9.30096L128.471 9.0005L128.471 20.8818ZM132.128 12.4765L133.198 13.2564L130.568 16.5814L133.615 20.2669L132.559 21.0928L128.961 16.6569L132.128 12.4765ZM134.826 18.6796C134.826 17.8503 135.101 17.2178 135.65 16.7839C136.201 16.3495 137.001 16.1315 138.052 16.1315H139.627V15.6081C139.627 14.3393 139.073 13.7048 137.962 13.7048C137.606 13.7048 137.231 13.7558 136.839 13.8558C136.447 13.9543 136.089 14.0808 135.762 14.2303L135.361 13.2569C135.767 13.0264 136.205 12.849 136.676 12.724C137.125 12.602 137.587 12.5388 138.052 12.536C139.974 12.536 140.936 13.5709 140.936 15.6381V20.8818H139.924L139.76 19.982C139.369 20.3037 138.93 20.5622 138.46 20.7484C138 20.9273 137.562 21.0173 137.145 21.0173C136.421 21.0173 135.853 20.8098 135.442 20.3949C135.031 19.98 134.826 19.4085 134.826 18.6796ZM137.393 19.9085C137.579 19.9085 137.774 19.8835 137.977 19.8325C138.183 19.7815 138.386 19.7171 138.585 19.6395C138.97 19.4857 139.323 19.2616 139.626 18.9786V17.0614H138.207C137.486 17.0614 136.961 17.1864 136.63 17.4358C136.298 17.6853 136.135 18.0807 136.135 18.6202C136.135 19.4795 136.553 19.9085 137.393 19.9085ZM146.438 12.552C147.568 12.552 148.455 12.9205 149.099 13.6603C149.743 14.3987 150.065 15.4581 150.065 16.8359C150.065 18.1947 149.745 19.2386 149.105 19.9675C148.468 20.6974 147.577 21.0623 146.438 21.0623C145.308 21.0623 144.42 20.6974 143.777 19.9675C143.132 19.2386 142.81 18.1947 142.81 16.8359C142.81 15.4581 143.134 14.3987 143.784 13.6603C144.433 12.9205 145.319 12.552 146.438 12.552ZM146.438 13.6603C145.725 13.6603 145.176 13.9293 144.795 14.4687C144.413 15.0087 144.222 15.7975 144.222 16.8359C144.222 17.8658 144.413 18.6426 144.795 19.1661C145.176 19.69 145.725 19.9535 146.438 19.9535C147.162 19.9535 147.714 19.69 148.095 19.1661C148.476 18.6426 148.668 17.8663 148.668 16.8364C148.668 15.7975 148.476 15.0087 148.095 14.4687C147.714 13.9293 147.162 13.6603 146.438 13.6603Z" fill="#707070"/>
<path d="M152.168 20.2327L153.7 18.7004L155.231 20.2327L153.7 21.7649L152.168 20.2327ZM152.465 9.71313H154.918L154.591 17.1381H152.809L152.465 9.71313ZM156.893 12.5897H158.378L158.675 13.3876C159.348 12.7302 160.316 12.3403 161.239 12.3403C162.239 12.3403 162.958 12.6827 163.364 13.3876C164.053 12.7142 164.989 12.3403 165.896 12.3403C167.537 12.3403 168.429 13.2766 168.429 15.3558V20.8266H166.334V15.4803C166.334 14.5595 165.991 14.168 165.021 14.168C164.583 14.168 164.053 14.263 163.708 14.403V20.8266H161.614V15.4803C161.614 14.5595 161.285 14.168 160.316 14.168C159.956 14.168 159.332 14.263 158.988 14.403V20.8266H156.893V12.5897ZM172.323 20.8891V23.9996H170.228V12.5892H171.713L171.963 13.2766C172.511 12.7457 173.214 12.3398 174.322 12.3398C176.481 12.3398 177.449 13.9495 177.449 16.5592C177.449 19.2953 175.887 21.0615 173.651 21.0615C173.202 21.0686 172.755 21.0105 172.323 20.8891ZM172.323 14.324V19.4358C172.463 19.4678 172.792 19.4833 173.073 19.4833C174.73 19.4833 175.324 18.3409 175.324 16.5587C175.324 15.0289 174.964 14.027 173.603 14.027C173.198 14.027 172.683 14.152 172.323 14.324ZM182.003 15.8093H183.315V15.5283C183.315 14.6214 183.034 14.105 181.799 14.105C181.034 14.105 180.33 14.2615 179.579 14.6529L179.001 13.2141C179.799 12.6672 180.971 12.3388 182.05 12.3388C184.159 12.3388 185.27 13.3701 185.27 15.5123V20.8266H183.8L183.565 20.1237C182.721 20.7791 181.815 21.0465 181.08 21.0465C179.471 21.0465 178.579 20.0922 178.579 18.4509C178.579 16.7162 179.767 15.8093 182.003 15.8093ZM183.315 18.7639V17.1541H182.19C181.064 17.1541 180.47 17.6075 180.47 18.4349C180.47 19.0288 180.814 19.4208 181.503 19.4208C182.222 19.4208 182.941 19.0923 183.315 18.7639ZM192.901 14.4655C192.307 14.2155 191.744 14.0275 190.901 14.0275C189.681 14.0275 188.852 14.7624 188.852 16.7007C188.852 18.6234 189.697 19.3418 191.087 19.3418C191.806 19.3418 192.635 19.1068 193.198 18.8729L193.683 20.3262C192.948 20.7636 191.869 21.061 190.729 21.061C188.056 21.061 186.743 19.4828 186.743 16.7167C186.743 14.0595 188.056 12.3388 190.759 12.3388C191.917 12.3388 192.869 12.6202 193.527 13.0437L192.901 14.4655ZM194.283 12.7457L195.596 12.5897V10.932L197.722 10.4785V12.5892H200.192V14.167H197.722V17.7465C197.722 19.0298 198.049 19.2633 198.659 19.2633C199.081 19.2633 199.55 19.1543 200.019 18.9823L200.504 20.4516C200.067 20.7326 199.081 21.0615 198.097 21.0615C196.362 21.0615 195.596 19.9982 195.596 17.8875V14.167H194.283V12.7457Z" fill="#707070"/>
</g>
<defs>
<clipPath id="clip0_2140_748">
<rect width="89.6663" height="15" fill="white" transform="translate(110.838 9)"/>
</clipPath>
</defs>
</svg>
