<svg width="258" height="30" viewBox="0 0 258 30" fill="none" xmlns="http://www.w3.org/2000/svg">
<rect x="0.986328" width="256.028" height="29.5626" rx="14.7813" fill="#EBEBEB" fill-opacity="0.24"/>
<path fill-rule="evenodd" clip-rule="evenodd" d="M48.9635 10.4834L49.0745 9.14923V9.14805L50.8535 9L50.3717 14.781L39.6992 15.6705L40.181 9.88947L41.9599 9.74143L41.8489 11.0756L44.5167 10.8536L44.6278 9.51935L46.4067 9.3713L46.2957 10.7055L48.9635 10.4834ZM44.3681 12.6325L41.7002 12.8546L41.6262 13.7441L44.2941 13.522L44.3681 12.6325ZM46.147 12.4839L46.073 13.3733L48.7408 13.1513L48.8149 12.2618L46.147 12.4839Z" fill="#707070"/>
<path d="M37.9592 10.0018L38.0379 9.1123L36.259 9.26035L35.7402 15.4861L37.5192 15.3375L37.8153 11.7801L39.1495 11.6691L39.2975 9.89015L37.9592 10.0018Z" fill="#707070"/>
<path d="M29.8856 16.8572L28.1072 17.0052L27.8105 20.5625L37.1489 19.7841L37.2969 18.0057L29.7375 18.6355L29.8856 16.8572Z" fill="#707070"/>
<path d="M30.1086 14.1888L35.0002 13.7811L34.8515 15.5601L28.1816 16.1158L28.7004 9.8901L35.3703 9.33374L35.2222 11.1133L30.3307 11.521L30.1086 14.1888Z" fill="#707070"/>
<path d="M39.4766 18.3396L43.9234 17.9689L43.7383 20.192L45.5166 20.0439L45.7023 17.8208L50.1491 17.4501L50.2971 15.6711L39.6246 16.5606L39.4766 18.3396Z" fill="#707070"/>
<path d="M64.3205 16.9683L72.3252 16.3009L72.2882 16.7456L64.2835 17.413L64.0244 20.5256L73.8075 19.7102L73.9185 18.3765L65.9144 19.0434L65.9514 18.5986L73.9555 17.9318L74.2146 14.8228L64.4321 15.6341L64.3205 16.9683Z" fill="#707070"/>
<path d="M74.6964 9.03809L74.3632 13.0401L74.808 13.0031L74.6964 14.3367L64.0244 15.2262L64.1355 13.8926L72.5843 13.1882L72.6583 12.2987L64.6542 12.9661L64.7653 11.6319L72.7699 10.9651L72.807 10.5203L64.8023 11.1872L64.9139 9.85295L74.6964 9.03809Z" fill="#707070"/>
<path d="M25.2293 9.14927L24.3398 19.8218L26.1182 19.6732L27.0077 9.00122L25.2293 9.14927Z" fill="#707070"/>
<path fill-rule="evenodd" clip-rule="evenodd" d="M22.4863 10.2608L22.5603 9.37129L22.5597 9.37071L24.3387 9.22266L23.4492 19.8952L21.6702 20.0432L22.041 15.5964L20.7073 15.7075L20.3396 20.1543L18.5583 20.3029L19.2991 11.4093L16.1865 11.669L16.3346 9.89006L21.2226 9.48292L21.1491 10.3724L22.4863 10.2608ZM20.8548 13.9291L22.1896 13.8181L22.1902 13.8187L22.3382 12.0397L21.0023 12.1508L20.8548 13.9291Z" fill="#707070"/>
<path d="M54.3251 9.74194L52.5461 9.88999L51.6572 20.5625L53.4356 20.4145L54.1024 12.4104L55.8814 12.2617L55.2145 20.2658L56.9929 20.1178L57.8084 10.3347L54.251 10.6314L54.3251 9.74194Z" fill="#707070"/>
<path d="M61.3655 10.0387L61.4395 9.14927L63.2185 9.00122L62.329 19.6732L60.5506 19.8218L60.9208 15.375L58.2529 15.5971L58.401 13.8181L61.0694 13.5961L61.2175 11.8171L58.549 12.0398L58.6977 10.2608L61.3655 10.0387Z" fill="#707070"/>
<path fill-rule="evenodd" clip-rule="evenodd" d="M84.6932 16.2637L77.5786 16.8565L77.6526 15.967L75.8736 16.1151L75.5029 20.5618L86.1754 19.6724L86.5462 15.2256L84.7672 15.3736L84.6932 16.2631V16.2637ZM77.3929 19.0802L77.4669 18.1907L84.5816 17.5979L84.5075 18.4874L77.3929 19.0802Z" fill="#707070"/>
<path d="M85.2115 10.0387L85.2855 9.14927L87.0644 9.00122L86.5827 14.7816L84.8037 14.9303L85.0634 11.8171L83.7292 11.9287L83.6552 12.8176L77.8742 13.2994L77.8001 14.1888L83.5811 13.7071L83.4695 15.0413L75.9102 15.6711L76.2068 12.1138L82.432 11.595L82.506 10.7056L76.2809 11.2243L76.3919 9.89011L83.9513 9.26031L83.8772 10.1498L85.2115 10.0387Z" fill="#707070"/>
<path d="M99.8245 9.10034H99.0645V20.4623H99.8245V9.10034Z" fill="#707070"/>
<path d="M119.844 11.3913H116.904V20.2313H114.754V11.3913H111.824V9.3313H119.844V11.3913Z" fill="#707070"/>
<path d="M127.784 18.1813V20.2413H121.044V9.3313H127.704V11.3913H123.184V13.7113H127.314V15.7313H123.184V18.1713H127.774L127.784 18.1813Z" fill="#707070"/>
<path d="M128.714 14.7813C128.714 11.5913 131.084 9.11133 134.384 9.11133C136.374 9.11133 138.134 10.1213 139.074 11.6813L137.224 12.7513C136.694 11.7813 135.634 11.1913 134.394 11.1913C132.264 11.1913 130.864 12.6713 130.864 14.7713C130.864 16.8713 132.264 18.3413 134.394 18.3413C135.644 18.3413 136.714 17.7513 137.224 16.8013L139.074 17.8713C138.154 19.4313 136.394 20.4413 134.384 20.4413C131.084 20.4413 128.714 17.9513 128.714 14.7713V14.7813Z" fill="#707070"/>
<path d="M148.725 9.3313V20.2313H146.595V15.7113H142.545V20.2313H140.395V9.3313H142.545V13.6613H146.595V9.3313H148.725Z" fill="#707070"/>
<path d="M156.795 11.3913V13.9713H161.035V16.0313H156.795V20.2313H154.645V9.3313H161.155V11.3913H156.795Z" fill="#707070"/>
<path d="M162.225 14.7813C162.225 11.5913 164.735 9.11133 167.875 9.11133C171.015 9.11133 173.545 11.5913 173.545 14.7813C173.545 17.9713 171.025 20.4513 167.875 20.4513C164.725 20.4513 162.225 17.9613 162.225 14.7813ZM171.395 14.7813C171.395 12.6813 169.855 11.2013 167.875 11.2013C165.895 11.2013 164.355 12.6813 164.355 14.7813C164.355 16.8813 165.895 18.3513 167.875 18.3513C169.855 18.3513 171.395 16.8713 171.395 14.7813Z" fill="#707070"/>
<path d="M178.845 16.4513H177.205V20.2313H175.055V9.3313H179.415C181.425 9.3313 183.045 10.9513 183.045 12.9413C183.045 14.3113 182.185 15.5413 180.945 16.1213L183.355 20.2313H181.035L178.835 16.4513H178.845ZM177.205 14.5613H179.415C180.225 14.5613 180.895 13.8413 180.895 12.9413C180.895 12.0413 180.225 11.3413 179.415 11.3413H177.205V14.5613Z" fill="#707070"/>
<path d="M203.355 20.2313H201.225V13.1613L198.155 18.2213H197.905L194.835 13.1713V20.2213H192.685V9.3313H194.895L198.025 14.4813L201.135 9.3313H203.345V20.2313H203.355Z" fill="#707070"/>
<path d="M213.154 12.9913C213.154 15.0313 211.534 16.6513 209.434 16.6513H207.514V20.2313H205.364V9.3313H209.424C211.524 9.3313 213.144 10.9513 213.144 12.9913H213.154ZM211.024 12.9913C211.024 12.0413 210.354 11.3413 209.434 11.3413H207.514V14.6413H209.434C210.354 14.6413 211.024 13.9213 211.024 12.9913Z" fill="#707070"/>
<path d="M219.804 18.2713H215.464L214.814 20.2313H212.494L216.304 9.3313H218.964L222.794 20.2313H220.454L219.804 18.2713ZM219.134 16.2613L217.644 11.8113L216.154 16.2613H219.144H219.134Z" fill="#707070"/>
<path d="M222.964 14.7813C222.964 11.5913 225.334 9.11133 228.634 9.11133C230.624 9.11133 232.384 10.1213 233.324 11.6813L231.474 12.7513C230.944 11.7813 229.884 11.1913 228.644 11.1913C226.514 11.1913 225.114 12.6713 225.114 14.7713C225.114 16.8713 226.514 18.3413 228.644 18.3413C229.894 18.3413 230.964 17.7513 231.474 16.8013L233.324 17.8713C232.404 19.4313 230.644 20.4413 228.634 20.4413C225.334 20.4413 222.964 17.9513 222.964 14.7713V14.7813Z" fill="#707070"/>
<path d="M241.814 11.3913H238.874V20.2313H236.724V11.3913H233.794V9.3313H241.814V11.3913Z" fill="#707070"/>
<path d="M189.574 20.3713C190.359 20.3713 190.994 19.7355 190.994 18.9513C190.994 18.167 190.359 17.5312 189.574 17.5312C188.79 17.5312 188.154 18.167 188.154 18.9513C188.154 19.7355 188.79 20.3713 189.574 20.3713Z" fill="#707070"/>
<path d="M189.575 16.1113C189.895 16.1113 190.195 16.1613 190.475 16.2613L191.215 9.25133C190.685 9.16133 190.135 9.11133 189.575 9.11133C189.015 9.11133 188.465 9.16133 187.935 9.25133L188.675 16.2613C188.955 16.1613 189.265 16.1113 189.575 16.1113Z" fill="#707070"/>
</svg>
