<svg width="48" height="49" viewBox="0 0 48 49" fill="none" xmlns="http://www.w3.org/2000/svg">
<circle cx="24" cy="24.3311" r="24" fill="#F3F2F0"/>
<path d="M12.8637 33.9783L13.1223 17.1068C13.1443 15.6733 14.3242 14.529 15.7577 14.551L24.0312 14.6778C25.4647 14.6998 26.609 15.8797 26.587 17.3132L26.5646 18.7733" stroke="#9F9F9F" stroke-width="2"/>
<path d="M37.0497 8.8312C37.6518 8.856 38.1294 9.34702 38.1372 9.94956C38.1454 10.5999 37.6062 11.1244 36.9563 11.0976L35.7841 11.0494C34.7761 11.0079 33.8641 11.6433 33.554 12.6033L29.1 26.3882C28.9863 26.7397 28.7464 27.0145 28.4469 27.1806C28.3158 27.2533 28.2174 27.3819 28.2151 27.5318C28.2121 27.7282 28.0505 27.885 27.8541 27.8819L11.3382 27.6288C10.9798 27.6233 10.6937 27.3283 10.6992 26.9699L10.7738 22.1024C10.7793 21.7441 11.0743 21.458 11.4327 21.4635L27.1806 21.7049C27.4659 21.7093 27.7205 21.5268 27.8081 21.2552L31.0312 11.2637C31.5355 9.70027 33.0209 8.66449 34.6622 8.7321L37.0497 8.8312Z" fill="#3182F7"/>
<circle cx="3.24489" cy="3.24489" r="3.24489" transform="matrix(-0.999883 -0.0153271 -0.0153271 0.999883 16.1553 30.9482)" fill="#484848"/>
<circle cx="1.29796" cy="1.29796" r="1.29796" transform="matrix(-0.999883 -0.0153271 -0.0153271 0.999883 14.1787 32.8643)" fill="#9F9F9F"/>
<mask id="path-6-inside-1_1748_14853" fill="white">
<path d="M28.2486 25.3952C28.2415 25.8576 28.7971 26.0978 29.1291 25.7759L33.1883 21.84C33.3942 21.6403 33.723 21.6455 33.9226 21.8515L34.1029 22.0376C34.3024 22.2435 34.2973 22.572 34.0915 22.7716L29.8743 26.8614C29.5423 27.1834 29.7653 27.7462 30.2278 27.7532L35.8375 27.8392C36.1063 27.8434 36.3209 28.0646 36.3168 28.3335C36.3127 28.6023 36.0914 28.8169 35.8226 28.8128L30.206 28.7267C29.7436 28.7196 29.5034 29.2752 29.8254 29.6072L33.9218 33.8312C34.1214 34.037 34.1164 34.3657 33.9105 34.5653L33.724 34.7462C33.5182 34.9458 33.1895 34.9407 32.9898 34.7349L29.0541 30.6758C28.7321 30.3437 28.1693 30.5668 28.1622 31.0293L28.0791 36.4512C28.0747 36.7379 27.8387 36.9667 27.552 36.9623L27.2926 36.9584C27.0059 36.954 26.777 36.718 26.7814 36.4313L26.8644 31.0151C26.8715 30.5526 26.3159 30.3124 25.9839 30.6344L22.2586 34.2472C22.0528 34.4468 21.7241 34.4418 21.5245 34.2359L21.3436 34.0494C21.1439 33.8435 21.149 33.5149 21.3548 33.3152L25.2506 29.5371C25.5826 29.2151 25.3596 28.6524 24.8971 28.6453L19.2757 28.5591C19.0069 28.555 18.7923 28.3337 18.7964 28.0649C18.8005 27.7961 19.0218 27.5815 19.2906 27.5856L24.9062 27.6717C25.3687 27.6788 25.6088 27.1231 25.2868 26.7911L21.5145 22.9013C21.3148 22.6954 21.3199 22.3668 21.5257 22.1671L21.7122 21.9862C21.9181 21.7866 22.2468 21.7917 22.4464 21.9975L26.0592 25.7227C26.3812 26.0548 26.9439 25.8317 26.951 25.3692L27.0341 19.9491C27.0385 19.6624 27.2744 19.4336 27.5611 19.438L27.8206 19.4419C28.1073 19.4463 28.3362 19.6823 28.3318 19.969L28.2486 25.3952Z"/>
</mask>
<path d="M28.2486 25.3952C28.2415 25.8576 28.7971 26.0978 29.1291 25.7759L33.1883 21.84C33.3942 21.6403 33.723 21.6455 33.9226 21.8515L34.1029 22.0376C34.3024 22.2435 34.2973 22.572 34.0915 22.7716L29.8743 26.8614C29.5423 27.1834 29.7653 27.7462 30.2278 27.7532L35.8375 27.8392C36.1063 27.8434 36.3209 28.0646 36.3168 28.3335C36.3127 28.6023 36.0914 28.8169 35.8226 28.8128L30.206 28.7267C29.7436 28.7196 29.5034 29.2752 29.8254 29.6072L33.9218 33.8312C34.1214 34.037 34.1164 34.3657 33.9105 34.5653L33.724 34.7462C33.5182 34.9458 33.1895 34.9407 32.9898 34.7349L29.0541 30.6758C28.7321 30.3437 28.1693 30.5668 28.1622 31.0293L28.0791 36.4512C28.0747 36.7379 27.8387 36.9667 27.552 36.9623L27.2926 36.9584C27.0059 36.954 26.777 36.718 26.7814 36.4313L26.8644 31.0151C26.8715 30.5526 26.3159 30.3124 25.9839 30.6344L22.2586 34.2472C22.0528 34.4468 21.7241 34.4418 21.5245 34.2359L21.3436 34.0494C21.1439 33.8435 21.149 33.5149 21.3548 33.3152L25.2506 29.5371C25.5826 29.2151 25.3596 28.6524 24.8971 28.6453L19.2757 28.5591C19.0069 28.555 18.7923 28.3337 18.7964 28.0649C18.8005 27.7961 19.0218 27.5815 19.2906 27.5856L24.9062 27.6717C25.3687 27.6788 25.6088 27.1231 25.2868 26.7911L21.5145 22.9013C21.3148 22.6954 21.3199 22.3668 21.5257 22.1671L21.7122 21.9862C21.9181 21.7866 22.2468 21.7917 22.4464 21.9975L26.0592 25.7227C26.3812 26.0548 26.9439 25.8317 26.951 25.3692L27.0341 19.9491C27.0385 19.6624 27.2744 19.4336 27.5611 19.438L27.8206 19.4419C28.1073 19.4463 28.3362 19.6823 28.3318 19.969L28.2486 25.3952Z" fill="#484848"/>
<path d="M28.3318 19.969L29.3316 19.9843L28.3318 19.969ZM27.0341 19.9491L26.0342 19.9338L27.0341 19.9491ZM22.4464 21.9975L21.7285 22.6937L22.4464 21.9975ZM21.5145 22.9013L22.2323 22.2051L21.5145 22.9013ZM25.2868 26.7911L24.569 27.4873L25.2868 26.7911ZM25.2506 29.5371L24.5544 28.8192L25.2506 29.5371ZM21.3436 34.0494L22.0614 33.3532L21.3436 34.0494ZM21.3548 33.3152L22.051 34.0331L21.3548 33.3152ZM21.5245 34.2359L22.2423 33.5397L21.5245 34.2359ZM28.0791 36.4512L27.0792 36.4358L28.0791 36.4512ZM29.0541 30.6758L28.3361 31.3719L29.0541 30.6758ZM28.1622 31.0293L29.1621 31.0446L28.1622 31.0293ZM32.9898 34.7349L32.2719 35.431L32.9898 34.7349ZM34.1029 22.0376L34.8212 21.3418L34.1029 22.0376ZM33.9226 21.8515L33.2044 22.5473L33.9226 21.8515ZM29.1291 25.7759L28.433 25.0579L29.1291 25.7759ZM28.2486 25.3952L27.2487 25.3798L28.2486 25.3952ZM29.1291 25.7759L29.8252 26.4938L33.8844 22.5579L33.1883 21.84L32.4922 21.122L28.433 25.0579L29.1291 25.7759ZM33.9226 21.8515L33.2044 22.5473L33.3847 22.7334L34.1029 22.0376L34.8212 21.3418L34.6408 21.1557L33.9226 21.8515ZM34.0915 22.7716L33.3953 22.0537L29.1781 26.1436L29.8743 26.8614L30.5705 27.5793L34.7877 23.4894L34.0915 22.7716ZM30.2278 27.7532L30.2125 28.7531L35.8222 28.8391L35.8375 27.8392L35.8528 26.8394L30.2431 26.7534L30.2278 27.7532ZM35.8226 28.8128L35.8379 27.8129L30.2214 27.7268L30.206 28.7267L30.1907 29.7265L35.8072 29.8126L35.8226 28.8128ZM29.8254 29.6072L29.1075 30.3034L33.2039 34.5273L33.9218 33.8312L34.6396 33.135L30.5433 28.911L29.8254 29.6072ZM33.9105 34.5653L33.2143 33.8474L33.0278 34.0283L33.724 34.7462L34.4202 35.464L34.6067 35.2832L33.9105 34.5653ZM32.9898 34.7349L33.7078 34.0388L29.772 29.9797L29.0541 30.6758L28.3361 31.3719L32.2719 35.431L32.9898 34.7349ZM28.1622 31.0293L27.1623 31.0139L27.0792 36.4358L28.0791 36.4512L29.079 36.4665L29.1621 31.0446L28.1622 31.0293ZM27.552 36.9623L27.5674 35.9625L27.3079 35.9585L27.2926 36.9584L27.2772 37.9582L27.5367 37.9622L27.552 36.9623ZM26.7814 36.4313L27.7813 36.4466L27.8643 31.0304L26.8644 31.0151L25.8645 30.9997L25.7815 36.416L26.7814 36.4313ZM25.9839 30.6344L25.2877 29.9165L21.5624 33.5293L22.2586 34.2472L22.9548 34.965L26.68 31.3523L25.9839 30.6344ZM21.5245 34.2359L22.2423 33.5397L22.0614 33.3532L21.3436 34.0494L20.6257 34.7456L20.8066 34.9321L21.5245 34.2359ZM21.3548 33.3152L22.051 34.0331L25.9468 30.255L25.2506 29.5371L24.5544 28.8192L20.6586 32.5974L21.3548 33.3152ZM24.8971 28.6453L24.9124 27.6454L19.291 27.5592L19.2757 28.5591L19.2604 29.559L24.8818 29.6452L24.8971 28.6453ZM19.2906 27.5856L19.2753 28.5855L24.8908 28.6716L24.9062 27.6717L24.9215 26.6718L19.3059 26.5857L19.2906 27.5856ZM25.2868 26.7911L26.0047 26.0949L22.2323 22.2051L21.5145 22.9013L20.7966 23.5975L24.569 27.4873L25.2868 26.7911ZM21.5257 22.1671L22.2219 22.885L22.4084 22.7041L21.7122 21.9862L21.0161 21.2684L20.8295 21.4493L21.5257 22.1671ZM22.4464 21.9975L21.7285 22.6937L25.3413 26.4189L26.0592 25.7227L26.777 25.0266L23.1643 21.3013L22.4464 21.9975ZM26.951 25.3692L27.9509 25.3846L28.0339 19.9645L27.0341 19.9491L26.0342 19.9338L25.9511 25.3539L26.951 25.3692ZM27.5611 19.438L27.5458 20.4378L27.8053 20.4418L27.8206 19.4419L27.8359 18.4421L27.5765 18.4381L27.5611 19.438ZM28.3318 19.969L27.3319 19.9537L27.2487 25.3798L28.2486 25.3952L29.2485 25.4105L29.3316 19.9843L28.3318 19.969ZM27.8206 19.4419L27.8053 20.4418C27.5397 20.4377 27.3278 20.2192 27.3319 19.9537L28.3318 19.969L29.3316 19.9843C29.3445 19.1454 28.6748 18.4549 27.8359 18.4421L27.8206 19.4419ZM27.0341 19.9491L28.0339 19.9645C28.0299 20.23 27.8113 20.4419 27.5458 20.4378L27.5611 19.438L27.5765 18.4381C26.7375 18.4252 26.047 19.0949 26.0342 19.9338L27.0341 19.9491ZM26.0592 25.7227L25.3413 26.4189C26.2835 27.3905 27.9301 26.7379 27.9509 25.3846L26.951 25.3692L25.9511 25.3539C25.9577 24.9256 26.4788 24.719 26.777 25.0266L26.0592 25.7227ZM21.7122 21.9862L22.4084 22.7041C22.2178 22.889 21.9134 22.8843 21.7285 22.6937L22.4464 21.9975L23.1643 21.3013C22.5801 20.699 21.6184 20.6843 21.0161 21.2684L21.7122 21.9862ZM21.5145 22.9013L22.2323 22.2051C22.4172 22.3957 22.4125 22.7001 22.2219 22.885L21.5257 22.1671L20.8295 21.4493C20.2272 22.0334 20.2125 22.9952 20.7966 23.5975L21.5145 22.9013ZM24.9062 27.6717L24.8908 28.6716C26.2441 28.6923 26.9469 27.0665 26.0047 26.0949L25.2868 26.7911L24.569 27.4873C24.2707 27.1798 24.4932 26.6652 24.9215 26.6718L24.9062 27.6717ZM18.7964 28.0649L19.7963 28.0802C19.7919 28.3636 19.5587 28.5898 19.2753 28.5855L19.2906 27.5856L19.3059 26.5857C18.4849 26.5731 17.8091 27.2285 17.7965 28.0496L18.7964 28.0649ZM19.2757 28.5591L19.291 27.5592C19.5744 27.5636 19.8006 27.7968 19.7963 28.0802L18.7964 28.0649L17.7965 28.0496C17.7839 28.8706 18.4393 29.5464 19.2604 29.559L19.2757 28.5591ZM25.2506 29.5371L25.9468 30.255C26.9184 29.3127 26.2657 27.6661 24.9124 27.6454L24.8971 28.6453L24.8818 29.6452C24.4535 29.6386 24.2469 29.1175 24.5544 28.8192L25.2506 29.5371ZM21.3436 34.0494L22.0614 33.3532C22.2463 33.5438 22.2416 33.8482 22.051 34.0331L21.3548 33.3152L20.6586 32.5974C20.0563 33.1815 20.0416 34.1433 20.6257 34.7456L21.3436 34.0494ZM22.2586 34.2472L21.5624 33.5293C21.7531 33.3444 22.0575 33.3491 22.2423 33.5397L21.5245 34.2359L20.8066 34.9321C21.3907 35.5344 22.3525 35.5491 22.9548 34.965L22.2586 34.2472ZM26.8644 31.0151L27.8643 31.0304C27.8851 29.6771 26.2593 28.9743 25.2877 29.9165L25.9839 30.6344L26.68 31.3523C26.3725 31.6505 25.858 31.4281 25.8645 30.9997L26.8644 31.0151ZM27.2926 36.9584L27.3079 35.9585C27.5734 35.9625 27.7854 36.1811 27.7813 36.4466L26.7814 36.4313L25.7815 36.416C25.7687 37.2549 26.4383 37.9454 27.2772 37.9582L27.2926 36.9584ZM28.0791 36.4512L27.0792 36.4358C27.0833 36.1703 27.3018 35.9584 27.5674 35.9625L27.552 36.9623L27.5367 37.9622C28.3756 37.9751 29.0661 37.3054 29.079 36.4665L28.0791 36.4512ZM29.0541 30.6758L29.772 29.9797C28.8298 29.008 27.1831 29.6606 27.1623 31.0139L28.1622 31.0293L29.1621 31.0446C29.1555 31.4729 28.6344 31.6795 28.3361 31.3719L29.0541 30.6758ZM33.724 34.7462L33.0278 34.0283C33.2185 33.8434 33.5229 33.8481 33.7078 34.0388L32.9898 34.7349L32.2719 35.431C32.856 36.0334 33.8179 36.0482 34.4202 35.464L33.724 34.7462ZM33.9218 33.8312L33.2039 34.5273C33.019 34.3367 33.0237 34.0323 33.2143 33.8474L33.9105 34.5653L34.6067 35.2832C35.209 34.6991 35.2238 33.7373 34.6396 33.135L33.9218 33.8312ZM30.206 28.7267L30.2214 27.7268C28.8681 27.706 28.1653 29.3318 29.1075 30.3034L29.8254 29.6072L30.5433 28.911C30.8415 29.2185 30.619 29.7331 30.1907 29.7265L30.206 28.7267ZM36.3168 28.3335L35.3169 28.3181C35.3213 28.0347 35.5545 27.8085 35.8379 27.8129L35.8226 28.8128L35.8072 29.8126C36.6283 29.8252 37.3041 29.1698 37.3167 28.3488L36.3168 28.3335ZM35.8375 27.8392L35.8222 28.8391C35.5388 28.8348 35.3126 28.6015 35.3169 28.3181L36.3168 28.3335L37.3167 28.3488C37.3293 27.5277 36.6739 26.8519 35.8528 26.8394L35.8375 27.8392ZM29.8743 26.8614L29.1781 26.1436C28.2065 27.0858 28.8592 28.7324 30.2125 28.7531L30.2278 27.7532L30.2431 26.7534C30.6714 26.7599 30.878 27.2811 30.5705 27.5793L29.8743 26.8614ZM34.1029 22.0376L33.3847 22.7334C33.2 22.5428 33.2048 22.2385 33.3953 22.0537L34.0915 22.7716L34.7877 23.4894C35.3898 22.9055 35.4048 21.9442 34.8212 21.3418L34.1029 22.0376ZM33.1883 21.84L33.8844 22.5579C33.6937 22.7428 33.3892 22.738 33.2044 22.5473L33.9226 21.8515L34.6408 21.1557C34.0569 20.5529 33.0947 20.5378 32.4922 21.122L33.1883 21.84ZM29.1291 25.7759L28.433 25.0579C28.7405 24.7598 29.255 24.9822 29.2485 25.4105L28.2486 25.3952L27.2487 25.3798C27.228 26.7331 28.8536 27.4359 29.8252 26.4938L29.1291 25.7759Z" fill="#484848" mask="url(#path-6-inside-1_1748_14853)"/>
<path d="M28.0786 17.8376C33.4746 18.1939 37.7001 22.7249 37.6163 28.193L37.5956 28.7181C37.2392 34.114 32.7082 38.3395 27.2402 38.2558L26.7141 38.2351C21.4923 37.8899 17.3666 33.6351 17.182 28.4052L17.1763 27.8797C17.2629 22.2353 21.9092 17.7294 27.5535 17.8158L28.0786 17.8376ZM27.5137 20.4112C23.3029 20.3468 19.8363 23.7086 19.7717 27.9194C19.7073 32.1302 23.0692 35.5958 27.2799 35.6604C31.4907 35.7248 34.9562 32.3639 35.0209 28.1532C35.0854 23.9424 31.7245 20.4759 27.5137 20.4112Z" fill="#484848"/>
</svg>
